<svg width="144" height="81" viewBox="0 0 144 81" fill="none" xmlns="http://www.w3.org/2000/svg">
<path d="M135.279 0H9.18939C4.45079 0 0.609375 3.84139 0.609375 8.57999V72C0.609375 76.7386 4.45079 80.58 9.18939 80.58H135.279C140.018 80.58 143.859 76.7386 143.859 72V8.57999C143.859 3.84139 140.018 0 135.279 0Z" fill="#01528A"/>
<path fill-rule="evenodd" clip-rule="evenodd" d="M120.32 39.6673C118.91 39.6673 117.78 38.5773 117.78 36.9473C117.78 35.3173 118.92 34.2273 120.32 34.2273C121.72 34.2273 122.85 35.3173 122.85 36.9473C122.85 38.5773 121.69 39.6773 120.32 39.6673ZM120.32 33.4973C118.49 33.4973 116.86 34.7673 116.86 36.9373C116.86 39.1073 118.49 40.3773 120.32 40.3773C122.15 40.3773 123.77 39.1073 123.77 36.9373C123.77 34.7673 122.14 33.4973 120.32 33.4973ZM120.45 36.6073H119.75V35.7173H120.31C120.61 35.7173 121.02 35.7473 121.02 36.1273C121.02 36.5373 120.81 36.6073 120.45 36.6073ZM121.86 36.2073C121.86 35.3573 121.3 35.0873 120.34 35.0873H118.96V38.7973H119.75V37.2373H120.12L120.98 38.7973H121.92L120.97 37.1773C121.46 37.1373 121.86 36.8973 121.86 36.2073ZM42.4498 31.7773H31.0997C29.5397 31.7773 28.2598 33.0573 28.2598 34.6173V45.9673C28.2598 47.5273 29.5397 48.8073 31.0997 48.8073H35.8698V46.5873H35.2297C33.8497 46.5873 32.6898 45.6673 32.3198 44.4073C32.3198 44.4073 32.3198 44.3973 32.3198 44.3873C32.3198 44.3573 32.2997 44.3273 32.2997 44.3073C31.7297 42.2373 30.6697 38.3673 30.2697 36.9073C30.2297 36.7473 30.4197 36.6373 30.5297 36.7573L33.8198 40.0773C33.9498 40.2073 33.8597 40.4373 33.6697 40.4373H32.9897L33.9197 43.8173C34.0897 44.3773 34.6097 44.7773 35.2197 44.7773H35.8698V38.0373C35.8698 38.0373 35.8398 37.9773 35.8098 37.9773H35.2097C35.0797 37.9773 34.9897 37.8473 35.0397 37.7273L36.6298 33.2973C36.6798 33.1573 36.8797 33.1573 36.9297 33.2973L38.5197 37.7273C38.5597 37.8473 38.4697 37.9773 38.3497 37.9773H37.7498C37.7498 37.9773 37.6898 38.0073 37.6898 38.0373V44.7873H38.3397C38.9497 44.7873 39.4698 44.3773 39.6398 43.8273L40.5698 40.4373H39.8898C39.6998 40.4373 39.6097 40.2173 39.7397 40.0873L43.0297 36.7673C43.1397 36.6573 43.3397 36.7673 43.2897 36.9173C42.8897 38.3773 41.8298 42.2473 41.2598 44.3173C41.2598 44.3473 41.2397 44.3773 41.2397 44.3973C41.2397 44.3973 41.2397 44.4073 41.2397 44.4173C40.8697 45.6773 39.7098 46.5973 38.3298 46.5973H37.6898V48.8173H42.4597C44.0197 48.8173 45.2997 47.5373 45.2997 45.9773V34.6273C45.2997 33.0673 44.0197 31.7873 42.4597 31.7873L42.4498 31.7773ZM101.99 36.4973H106.09V47.1673H109.67V36.4973H113.77V33.4173H101.98V36.4973H101.99ZM92.9197 41.4573H99.6597V38.6873H92.9197V36.2773H100.3V33.4073H89.3397V47.1573H100.49V44.0773H92.9197V41.4573ZM86.1998 40.2473C85.4498 39.5573 83.9997 38.9773 81.7897 38.4973C80.0197 38.1173 79.3397 37.7073 79.3397 37.0673C79.3397 36.3173 80.0298 35.8873 81.0698 35.8873C82.3598 35.8873 83.2797 36.4073 83.2797 37.4273V37.5473H86.8397V37.3773C86.8397 34.8773 84.5498 33.1173 81.3298 33.1173C78.5798 33.1173 75.7397 34.4273 75.7397 37.2973C75.7397 38.3373 76.0897 39.1473 76.7797 39.8173C77.4897 40.4873 78.7998 41.0873 80.6898 41.5073C82.3098 41.8773 83.7097 42.2573 83.7097 43.2573C83.7097 44.1473 82.8198 44.6673 81.4998 44.6673C79.8098 44.6673 78.9997 43.9973 78.9197 42.5273H75.3397C75.3397 45.7073 77.7298 47.4373 81.3098 47.4373C84.8898 47.4373 87.2997 45.8773 87.2997 42.8373C87.2997 41.7773 86.9297 40.9073 86.1797 40.2373L86.1998 40.2473ZM67.0798 44.3673C65.0198 44.3673 63.8798 42.6873 63.8798 40.2873C63.8798 37.8873 65.0398 36.2073 67.0598 36.2073C69.0798 36.2073 70.2797 37.8973 70.2797 40.2873C70.2797 42.6773 69.1198 44.3673 67.0798 44.3673ZM67.0798 33.1273C62.7898 33.1273 60.2997 36.2673 60.2997 40.2873C60.2997 44.5673 63.0298 47.4473 67.0798 47.4473C71.1298 47.4473 73.8597 44.3673 73.8597 40.2873C73.8597 36.2073 71.2598 33.1273 67.0798 33.1273ZM48.6998 47.1673H52.2797V41.8673H57.9398V39.0973H52.2797V36.2873H58.8298V33.4173H48.6998V47.1673Z" fill="white"/>
</svg>
