<svg width="48" height="48" viewBox="0 0 48 48" fill="none" xmlns="http://www.w3.org/2000/svg">
<g clip-path="url(#clip0_609_5474)">
<path d="M42.9871 5.18945H18.1468C17.3376 5.18945 16.6529 5.72413 16.4258 6.46022H11.0909C10.9115 6.46022 10.7284 6.50417 10.5673 6.58474L6.30151 8.7271C5.90605 8.92486 5.65706 9.32404 5.65706 9.76716V10.0638H0.911621V13.5612H5.66073V13.8615C5.66073 14.3009 5.90239 14.6964 6.29418 14.8979L10.56 17.0878C10.7247 17.1721 10.9078 17.216 11.0909 17.216H11.1019L16.4295 17.1684C16.5979 17.7067 17.0117 18.1352 17.5353 18.3256V25.8258H16.9092C15.8986 25.8258 15.0784 26.6461 15.0784 27.6568C15.0784 28.4698 15.613 29.162 16.349 29.4V41.0128C16.349 42.0052 17.1582 42.8145 18.1505 42.8145H22.7018C23.6941 42.8145 24.5034 42.0052 24.5034 41.0128V29.411C25.254 29.184 25.8032 28.4845 25.8032 27.6605C25.8032 26.6497 24.983 25.8294 23.9724 25.8294H23.3463V18.4758C23.7234 18.549 24.0713 18.7395 24.3422 19.0141L26.4623 21.1931C27.0225 21.7681 27.8025 22.0977 28.6044 22.0977H33.5622C34.6899 22.0977 35.6859 22.8557 35.9898 23.9397L39.6331 37.0283C39.981 38.2808 41.1344 39.1597 42.4379 39.1597H44.1955C45.7956 39.1597 47.0991 37.856 47.0991 36.2556V9.29108C47.0991 7.02786 45.2573 5.18945 42.9981 5.18945H42.9871ZM1.96983 12.5028V11.1258H5.66073V12.5028H1.96983ZM11.0909 16.1576C11.0909 16.1576 11.0579 16.154 11.0433 16.1467L6.77751 13.9567C6.7409 13.9384 6.71893 13.9017 6.71893 13.8615V9.76716C6.71893 9.72688 6.7409 9.69025 6.77751 9.67194L11.0433 7.52958C11.0433 7.52958 11.0762 7.51859 11.0909 7.51859H16.3453V16.1064L11.0909 16.154V16.1576ZM17.4072 6.99124C17.4072 6.58108 17.7404 6.24782 18.1505 6.24782H22.2844V17.3771H18.5935V17.2307H17.7074C17.5243 17.0952 17.4072 16.8791 17.4072 16.6374V6.9949V6.99124ZM22.6982 41.7525H18.1468C17.7367 41.7525 17.4035 41.4193 17.4035 41.0091V29.4879H23.4378V41.0091C23.4378 41.4193 23.1046 41.7525 22.6945 41.7525H22.6982ZM24.5766 27.6568C24.5766 27.9901 24.3056 28.2648 23.9688 28.2648H16.9055C16.5723 28.2648 16.2977 27.9938 16.2977 27.6568C16.2977 27.3199 16.5686 27.0489 16.9055 27.0489H23.9688C24.302 27.0489 24.5766 27.3199 24.5766 27.6568ZM18.5935 25.8258V18.4355H22.2844V25.8258H18.5935ZM46.0299 36.2519C46.0299 37.2664 45.2024 38.094 44.1882 38.094H42.4306C41.6031 38.094 40.8707 37.5374 40.6474 36.739L37.0041 23.6504C36.5757 22.1087 35.1586 21.032 33.5585 21.032H28.6007C28.0844 21.032 27.5791 20.8196 27.2203 20.4497L25.1002 18.2707C24.6315 17.791 24.009 17.4833 23.3463 17.3991V6.24782H42.9908C44.6678 6.24782 46.0336 7.61381 46.0336 9.29108V36.2519H46.0299Z" fill="#FF6720"/>
<path d="M34.6862 11.126H41.8117C42.1046 11.126 42.3426 10.888 42.3426 10.595C42.3426 10.302 42.1046 10.064 41.8117 10.064H34.6862C34.3933 10.064 34.1553 10.302 34.1553 10.595C34.1553 10.888 34.3933 11.126 34.6862 11.126Z" fill="#FF6720"/>
<path d="M34.6862 13.5611H41.8117C42.1046 13.5611 42.3426 13.323 42.3426 13.03C42.3426 12.7371 42.1046 12.499 41.8117 12.499H34.6862C34.3933 12.499 34.1553 12.7371 34.1553 13.03C34.1553 13.323 34.3933 13.5611 34.6862 13.5611Z" fill="#FF6720"/>
<path d="M42.339 15.469C42.339 15.176 42.101 14.938 41.808 14.938H34.6825C34.3896 14.938 34.1516 15.176 34.1516 15.469C34.1516 15.762 34.3896 16 34.6825 16H41.808C42.101 16 42.339 15.762 42.339 15.469Z" fill="#FF6720"/>
<path d="M41.8117 21.7866C40.5887 21.7866 39.5964 22.7791 39.5964 24.0022C39.5964 25.2254 40.5887 26.2178 41.8117 26.2178C43.0347 26.2178 44.027 25.2254 44.027 24.0022C44.027 22.7791 43.0347 21.7866 41.8117 21.7866ZM41.8117 25.1558C41.1746 25.1558 40.6546 24.6358 40.6546 23.9986C40.6546 23.3614 41.1746 22.8413 41.8117 22.8413C42.4488 22.8413 42.9688 23.3614 42.9688 23.9986C42.9688 24.6358 42.4488 25.1558 41.8117 25.1558Z" fill="#FF6720"/>
</g>
<defs>
<clipPath id="clip0_609_5474">
<rect width="48" height="48" fill="white"/>
</clipPath>
</defs>
</svg>
