<svg width="48" height="48" viewBox="0 0 48 48" fill="none" xmlns="http://www.w3.org/2000/svg">
<g clip-path="url(#clip0_609_5623)">
<path d="M37.0517 48H10.9518C9.44685 48 8.22021 46.7988 8.22021 45.3252V2.67483C8.22021 1.20117 9.44685 0 10.9518 0H37.0517C38.5566 0 39.7833 1.20117 39.7833 2.67483V45.3252C39.7833 46.7988 38.5566 48 37.0517 48ZM10.9518 1.09718C10.062 1.09718 9.34067 1.80354 9.34067 2.67483V45.3252C9.34067 46.1965 10.062 46.9028 10.9518 46.9028H37.0517C37.9415 46.9028 38.6628 46.1965 38.6628 45.3252V2.67483C38.6628 1.80354 37.9415 1.09718 37.0517 1.09718H10.9518Z" fill="#FF6720"/>
<path d="M36.4878 44.773H11.5156V3.22705H36.4878V44.773ZM12.6361 43.6758H35.3673V4.32423H12.6361V43.6758Z" fill="#FF6720"/>
<path d="M26.3013 22.6105H21.6987C21.3874 22.6105 21.1384 22.3631 21.1384 22.0619V20.2583C21.1384 18.713 22.4237 17.458 23.9981 17.458C25.5726 17.458 26.8579 18.7165 26.8579 20.2583V22.0619C26.8579 22.3667 26.6052 22.6105 26.2976 22.6105H26.3013ZM22.2589 21.5133H25.7411V20.2583C25.7411 19.3189 24.9611 18.5552 24.0018 18.5552C23.0425 18.5552 22.2625 19.3189 22.2625 20.2583V21.5133H22.2589Z" fill="#FF6720"/>
<path d="M19.5419 14.9985C19.2307 14.9985 18.9817 14.7511 18.9817 14.4499V8.92457C18.9817 8.61979 19.2343 8.37598 19.5419 8.37598C19.8495 8.37598 20.1021 8.62338 20.1021 8.92457V14.4499C20.1021 14.7547 19.8495 14.9985 19.5419 14.9985Z" fill="#FF6720"/>
<path d="M28.4616 14.9985C28.1504 14.9985 27.9014 14.7511 27.9014 14.4499V8.92457C27.9014 8.61979 28.154 8.37598 28.4616 8.37598C28.7692 8.37598 29.0218 8.62338 29.0218 8.92457V14.4499C29.0218 14.7547 28.7692 14.9985 28.4616 14.9985Z" fill="#FF6720"/>
<path d="M26.3013 40.632H21.6987C21.3874 40.632 21.1384 40.3846 21.1384 40.0834V38.2798C21.1384 36.7344 22.4237 35.4795 23.9981 35.4795C25.5726 35.4795 26.8579 36.738 26.8579 38.2798V40.0834C26.8579 40.3881 26.6052 40.632 26.2976 40.632H26.3013ZM22.2589 39.5348H25.7411V38.2798C25.7411 37.3404 24.9611 36.5767 24.0018 36.5767C23.0425 36.5767 22.2625 37.3404 22.2625 38.2798V39.5348H22.2589Z" fill="#FF6720"/>
<path d="M19.5419 33.0195C19.2307 33.0195 18.9817 32.7721 18.9817 32.4709V26.9456C18.9817 26.6408 19.2343 26.397 19.5419 26.397C19.8495 26.397 20.1021 26.6444 20.1021 26.9456V32.4709C20.1021 32.7757 19.8495 33.0195 19.5419 33.0195Z" fill="#FF6720"/>
<path d="M28.4616 33.0195C28.1504 33.0195 27.9014 32.7721 27.9014 32.4709V26.9456C27.9014 26.6408 28.154 26.397 28.4616 26.397C28.7692 26.397 29.0218 26.6444 29.0218 26.9456V32.4709C29.0218 32.7757 28.7692 33.0195 28.4616 33.0195Z" fill="#FF6720"/>
</g>
<defs>
<clipPath id="clip0_609_5623">
<rect width="48" height="48" fill="white"/>
</clipPath>
</defs>
</svg>
