<svg width="48" height="48" viewBox="0 0 48 48" fill="none" xmlns="http://www.w3.org/2000/svg">
<g clip-path="url(#clip0_609_5554)">
<path d="M43.6574 32.9889C43.3462 32.9889 43.0972 32.7362 43.0972 32.4286V8.55494C43.0972 8.24366 43.3498 7.99463 43.6574 7.99463C43.965 7.99463 44.2176 8.24732 44.2176 8.55494V32.4286C44.2176 32.7399 43.965 32.9889 43.6574 32.9889Z" fill="#FF671D"/>
<path d="M35.2321 32.9889C34.9209 32.9889 34.6719 32.7362 34.6719 32.4286V8.55494C34.6719 8.24366 34.9245 7.99463 35.2321 7.99463C35.5397 7.99463 35.7923 8.24732 35.7923 8.55494V32.4286C35.7923 32.7399 35.5397 32.9889 35.2321 32.9889Z" fill="#FF671D"/>
<path d="M18.3849 32.9889C18.0737 32.9889 17.8247 32.7362 17.8247 32.4285V28.2171C17.8247 27.9058 18.0774 27.6567 18.3849 27.6567C18.6925 27.6567 18.9452 27.9094 18.9452 28.2171V32.4285C18.9452 32.7398 18.6925 32.9889 18.3849 32.9889Z" fill="#FF671D"/>
<path d="M26.8105 32.9889C26.4992 32.9889 26.2502 32.7362 26.2502 32.4285V28.2171C26.2502 27.9058 26.5029 27.6567 26.8105 27.6567C27.118 27.6567 27.3707 27.9094 27.3707 28.2171V32.4285C27.3707 32.7398 27.118 32.9889 26.8105 32.9889Z" fill="#FF671D"/>
<path d="M8.55363 17.5385C8.2424 17.5385 7.99341 17.2858 7.99341 16.9782V5.74635C7.99341 5.43506 8.24606 5.18604 8.55363 5.18604C8.86121 5.18604 9.11386 5.43872 9.11386 5.74635V16.9819C9.11386 17.2932 8.86121 17.5422 8.55363 17.5422V17.5385Z" fill="#FF671D"/>
<path d="M45.0636 3.49758H33.8298C33.5185 3.49758 33.2695 3.24489 33.2695 2.93726C33.2695 2.62964 33.5222 2.37695 33.8298 2.37695H45.0636C45.3748 2.37695 45.6238 2.62964 45.6238 2.93726C45.6238 3.24489 45.3711 3.49758 45.0636 3.49758Z" fill="#FF671D"/>
<path d="M8.5536 6.30666H2.93669C2.62545 6.30666 2.37646 6.05397 2.37646 5.74635C2.37646 5.43872 2.62912 5.18604 2.93669 5.18604H8.5536C8.86483 5.18604 9.11382 5.43872 9.11382 5.74635C9.11382 6.05397 8.86117 6.30666 8.5536 6.30666Z" fill="#FF671D"/>
<path d="M8.5536 17.5381H2.93669C2.62545 17.5381 2.37646 17.2854 2.37646 16.9778C2.37646 16.6702 2.62912 16.4175 2.93669 16.4175H8.5536C8.86483 16.4175 9.11382 16.6702 9.11382 16.9778C9.11382 17.2854 8.86117 17.5381 8.5536 17.5381Z" fill="#FF671D"/>
<path d="M2.94035 17.5385C2.62912 17.5385 2.38013 17.2858 2.38013 16.9782V5.74635C2.38013 5.43506 2.63278 5.18604 2.94035 5.18604C3.24793 5.18604 3.50058 5.43872 3.50058 5.74635V16.9819C3.50058 17.2932 3.24793 17.5422 2.94035 17.5422V17.5385Z" fill="#FF671D"/>
<path d="M45.0636 9.11525H33.8298C33.5185 9.11525 33.2695 8.86256 33.2695 8.55494C33.2695 8.24732 33.5222 7.99463 33.8298 7.99463H45.0636C45.3748 7.99463 45.6238 8.24732 45.6238 8.55494C45.6238 8.86256 45.3711 9.11525 45.0636 9.11525Z" fill="#FF671D"/>
<path d="M33.8298 9.11534C33.5185 9.11534 33.2695 8.86265 33.2695 8.55503V2.93726C33.2695 2.62598 33.5222 2.37695 33.8298 2.37695C34.1373 2.37695 34.39 2.62964 34.39 2.93726V8.55503C34.39 8.86631 34.1373 9.11534 33.8298 9.11534Z" fill="#FF671D"/>
<path d="M45.0634 9.11534C44.7522 9.11534 44.5032 8.86265 44.5032 8.55503V2.93726C44.5032 2.62598 44.7558 2.37695 45.0634 2.37695C45.371 2.37695 45.6236 2.62964 45.6236 2.93726V8.55503C45.6236 8.86631 45.371 9.11534 45.0634 9.11534Z" fill="#FF671D"/>
<path d="M31.0213 37.2003C28.3886 37.2003 26.2502 35.0579 26.2502 32.4285C26.2502 32.1172 26.5029 31.8682 26.8105 31.8682C27.118 31.8682 27.3707 32.1209 27.3707 32.4285C27.3707 34.4427 29.0074 36.0797 31.0213 36.0797C33.0352 36.0797 34.6719 34.4427 34.6719 32.4285C34.6719 32.1172 34.9246 31.8682 35.2322 31.8682C35.5397 31.8682 35.7924 32.1209 35.7924 32.4285C35.7924 35.0616 33.6504 37.2003 31.0213 37.2003Z" fill="#FF671D"/>
<path d="M31.0211 45.6269C23.7455 45.6269 17.8247 39.7052 17.8247 32.4285C17.8247 32.1172 18.0774 31.8682 18.3849 31.8682C18.6925 31.8682 18.9452 32.1209 18.9452 32.4285C18.9452 39.09 24.3643 44.5063 31.0211 44.5063C37.6779 44.5063 43.0971 39.0863 43.0971 32.4285C43.0971 32.1172 43.3498 31.8682 43.6573 31.8682C43.9649 31.8682 44.2176 32.1209 44.2176 32.4285C44.2176 39.7052 38.2968 45.6269 31.0211 45.6269Z" fill="#FF671D"/>
<path d="M15.5766 7.709H8.5573C8.24606 7.709 7.99707 7.45631 7.99707 7.14869C7.99707 6.84107 8.24972 6.58838 8.5573 6.58838H15.5766C15.8878 6.58838 16.1368 6.84107 16.1368 7.14869C16.1368 7.45631 15.8842 7.709 15.5766 7.709Z" fill="#FF671D"/>
<path d="M15.5766 16.1358H8.5573C8.24606 16.1358 7.99707 15.8831 7.99707 15.5754C7.99707 15.2678 8.24972 15.0151 8.5573 15.0151H15.5766C15.8878 15.0151 16.1368 15.2678 16.1368 15.5754C16.1368 15.8831 15.8842 16.1358 15.5766 16.1358Z" fill="#FF671D"/>
<path d="M26.8104 18.9445C26.4992 18.9445 26.2502 18.6918 26.2502 18.3842C26.2502 12.4991 21.4608 7.709 15.5766 7.709C15.2653 7.709 15.0164 7.45631 15.0164 7.14869C15.0164 6.84107 15.269 6.58838 15.5766 6.58838C22.0796 6.58838 27.3706 11.8802 27.3706 18.3842C27.3706 18.6955 27.118 18.9445 26.8104 18.9445Z" fill="#FF671D"/>
<path d="M18.385 18.9446C18.0738 18.9446 17.8248 18.692 17.8248 18.3843C17.8248 17.1429 16.8179 16.1358 15.5766 16.1358C15.2653 16.1358 15.0164 15.8831 15.0164 15.5754C15.0164 15.2678 15.269 15.0151 15.5766 15.0151C17.433 15.0151 18.9453 16.5276 18.9453 18.3843C18.9453 18.6956 18.6926 18.9446 18.385 18.9446Z" fill="#FF671D"/>
<path d="M28.2127 23.1563H16.9789C16.6677 23.1563 16.4187 22.9036 16.4187 22.596C16.4187 22.2883 16.6714 22.0356 16.9789 22.0356H28.2127C28.524 22.0356 28.773 22.2883 28.773 22.596C28.773 22.9036 28.5203 23.1563 28.2127 23.1563Z" fill="#FF671D"/>
<path d="M28.2127 28.7739H16.9789C16.6677 28.7739 16.4187 28.5213 16.4187 28.2136C16.4187 27.906 16.6714 27.6533 16.9789 27.6533H28.2127C28.524 27.6533 28.773 27.906 28.773 28.2136C28.773 28.5213 28.5203 28.7739 28.2127 28.7739Z" fill="#FF671D"/>
<path d="M16.9789 28.774C16.6677 28.774 16.4187 28.5213 16.4187 28.2137V22.596C16.4187 22.2847 16.6714 22.0356 16.9789 22.0356C17.2865 22.0356 17.5392 22.2883 17.5392 22.596V28.2137C17.5392 28.525 17.2865 28.774 16.9789 28.774Z" fill="#FF671D"/>
<path d="M28.2128 28.774C27.9016 28.774 27.6526 28.5213 27.6526 28.2137V22.596C27.6526 22.2847 27.9052 22.0356 28.2128 22.0356C28.5204 22.0356 28.773 22.2883 28.773 22.596V28.2137C28.773 28.525 28.5204 28.774 28.2128 28.774Z" fill="#FF671D"/>
<path d="M18.3849 23.1558C18.0737 23.1558 17.8247 22.9032 17.8247 22.5955V18.384C17.8247 18.0728 18.0774 17.8237 18.3849 17.8237C18.6925 17.8237 18.9452 18.0764 18.9452 18.384V22.5955C18.9452 22.9068 18.6925 23.1558 18.3849 23.1558Z" fill="#FF671D"/>
<path d="M26.8105 23.1558C26.4992 23.1558 26.2502 22.9032 26.2502 22.5955V18.384C26.2502 18.0728 26.5029 17.8237 26.8105 17.8237C27.118 17.8237 27.3707 18.0764 27.3707 18.384V22.5955C27.3707 22.9068 27.118 23.1558 26.8105 23.1558Z" fill="#FF671D"/>
</g>
<defs>
<clipPath id="clip0_609_5554">
<rect width="48" height="48" fill="white"/>
</clipPath>
</defs>
</svg>
