<svg width="145" height="81" viewBox="0 0 145 81" fill="none" xmlns="http://www.w3.org/2000/svg">
<path d="M135.529 0H9.43938C4.70077 0 0.859375 3.84139 0.859375 8.57999V72C0.859375 76.7386 4.70077 80.58 9.43938 80.58H135.529C140.268 80.58 144.109 76.7386 144.109 72V8.57999C144.109 3.84139 140.268 0 135.529 0Z" fill="#FF6720"/>
<path fill-rule="evenodd" clip-rule="evenodd" d="M123.499 36.8092V38.5192H122.629V34.4492H124.149C125.199 34.4492 125.819 34.7492 125.819 35.6792C125.819 36.4292 125.379 36.6992 124.839 36.7392L125.879 38.5192H124.849L123.909 36.8092H123.499ZM123.499 36.1192H124.269C124.659 36.1192 124.889 36.0392 124.889 35.5892C124.889 35.1692 124.439 35.1392 124.109 35.1392H123.499V36.1192Z" fill="#323E48"/>
<path fill-rule="evenodd" clip-rule="evenodd" d="M127.92 36.4909C127.92 38.8809 126.13 40.271 124.13 40.271C122.13 40.271 120.33 38.8809 120.33 36.4909C120.33 34.1009 122.12 32.7109 124.13 32.7109C126.14 32.7109 127.92 34.1009 127.92 36.4909ZM126.91 36.4909C126.91 34.7009 125.63 33.5009 124.13 33.5009C122.63 33.5009 121.34 34.6909 121.34 36.4909C121.34 38.2909 122.59 39.4909 124.13 39.4809C125.63 39.4809 126.91 38.2909 126.91 36.4909Z" fill="#323E48"/>
<path d="M23.0293 32.6211H37.8193V35.9511H32.3993V47.7111H28.4493V35.9511H23.0293V32.6211Z" fill="#323E48"/>
<path d="M87.8691 32.6211H91.7591H100.599V35.7811H91.7591V38.6011H98.5692V41.7211H91.7591V44.5411H100.599V47.7111H91.7591H87.8691V44.5411V41.7211V38.6011V35.7811V32.6211Z" fill="#323E48"/>
<path d="M69.6089 43.1994C69.5889 45.4294 68.0089 47.2794 65.8889 47.6694C64.8489 47.8594 63.7489 47.9594 62.6189 47.9594C61.4889 47.9594 60.3789 47.8594 59.3489 47.6694C57.2289 47.2794 55.6389 45.4294 55.6289 43.1994V32.6094H59.4689V35.0494C59.4689 35.0494 59.4089 40.7894 59.4689 42.4894C59.5289 43.9694 60.6689 44.7894 62.1789 44.8494C62.4789 44.8594 62.7689 44.8594 63.0689 44.8494C64.5489 44.7894 65.7289 43.9594 65.7789 42.4894C65.8389 40.7894 65.7789 35.0494 65.7789 35.0494V32.6094H69.6189V43.1994H69.6089Z" fill="#323E48"/>
<path d="M50.7898 42.2894C54.2698 41.1094 53.9099 37.4794 53.9099 37.4794C53.9099 32.6394 49.0499 32.6094 49.0499 32.6094H39.5898V47.6994H43.5298V35.7594H47.8998C48.8898 35.7594 49.6898 36.5594 49.6898 37.5494V37.6594C49.6898 38.6494 48.8898 39.4494 47.8998 39.4494H44.3499C44.2299 39.4494 44.1699 39.5794 44.2399 39.6694L50.3998 47.6894H55.0898L50.7798 42.2694L50.7898 42.2894Z" fill="#323E48"/>
<path d="M113.768 42.2894C117.248 41.1094 116.888 37.4794 116.888 37.4794C116.888 32.6394 112.028 32.6094 112.028 32.6094H102.568V47.6994H106.508V35.7594H110.878C111.868 35.7594 112.668 36.5594 112.668 37.5494V37.6594C112.668 38.6494 111.868 39.4494 110.878 39.4494H107.328C107.208 39.4494 107.148 39.5794 107.218 39.6694L113.378 47.6894H118.068L113.758 42.2694L113.768 42.2894Z" fill="#323E48"/>
<path d="M82.0885 37.6694C82.0885 38.6594 81.2885 39.4594 80.2985 39.4594H75.9285V35.7594H80.2985C81.2885 35.7594 82.0885 36.5594 82.0885 37.5494V37.6594V37.6694ZM86.2985 37.4794C86.2985 32.6394 81.4385 32.6094 81.4385 32.6094H71.9785V47.6994H75.9185V42.5694H81.2985C82.4585 42.5694 83.1685 42.2794 83.1685 42.2794C86.6485 41.0994 86.2885 37.4694 86.2885 37.4694L86.2985 37.4794Z" fill="#323E48"/>
</svg>
