<svg width="144" height="81" viewBox="0 0 144 81" fill="none" xmlns="http://www.w3.org/2000/svg">
<path d="M135.029 0H8.93936C4.20076 0 0.359375 3.84139 0.359375 8.57999V72C0.359375 76.7386 4.20076 80.58 8.93936 80.58H135.029C139.768 80.58 143.609 76.7386 143.609 72V8.57999C143.609 3.84139 139.768 0 135.029 0Z" fill="#2B338C"/>
<path d="M121.768 37.1503H121.168V36.3903H121.648C121.908 36.3903 122.258 36.4103 122.258 36.7403C122.258 37.0903 122.078 37.1503 121.778 37.1503H121.768ZM122.978 36.8103C122.978 36.0803 122.498 35.8503 121.678 35.8503H120.488V39.0303H121.168V37.7003H121.488L122.218 39.0303H123.018L122.208 37.6403C122.628 37.6103 122.968 37.4003 122.968 36.8103H122.978ZM121.658 39.7703C120.448 39.7703 119.478 38.8403 119.478 37.4403C119.478 36.0403 120.448 35.1103 121.658 35.1103C122.868 35.1103 123.828 36.0403 123.828 37.4403C123.828 38.8403 122.828 39.7803 121.658 39.7703ZM121.658 34.4903C120.088 34.4903 118.698 35.5703 118.698 37.4403C118.698 39.3103 120.098 40.3903 121.658 40.3903C123.218 40.3903 124.618 39.3103 124.618 37.4403C124.618 35.5703 123.218 34.4903 121.658 34.4903ZM95.3383 40.3603C95.3383 44.0803 97.6684 46.3903 101.418 46.3903C102.458 46.3903 103.318 46.2703 104.228 45.9803V43.7903L104.138 43.8203C103.218 44.1603 102.528 44.3003 101.638 44.3003C99.2383 44.3003 97.9684 42.9403 97.9684 40.3703C97.9684 37.8003 99.2283 36.2803 101.518 36.2803C102.628 36.2803 103.148 36.4203 104.018 36.6803L104.218 36.7503V34.5903C103.378 34.3603 102.538 34.2103 101.378 34.2103C97.7084 34.2103 95.3383 36.6303 95.3383 40.3803V40.3603ZM106.548 46.1903H109.028V34.3803H106.548V46.1903ZM85.2884 39.1303C85.5584 37.0203 86.5783 36.0403 88.3983 36.0403C90.2183 36.0403 91.1683 37.5303 91.2083 39.1303H85.2784H85.2884ZM88.4084 34.0903C84.7684 34.0903 82.5083 36.4903 82.5083 40.3503C82.5083 44.2103 84.7983 46.4603 88.9583 46.4603C90.2683 46.4603 91.4284 46.3003 92.4084 45.9703V43.7703L92.2884 43.8203C91.2984 44.1903 90.2284 44.3803 89.0984 44.3803C86.5484 44.3803 85.3584 43.3203 85.2484 40.9503H93.5783V40.8503C93.6383 40.4103 93.6584 40.0003 93.6584 39.5703C93.6584 36.2503 91.5983 34.1003 88.3983 34.1003L88.4084 34.0903ZM116.428 34.3803H113.638L109.448 40.2103L114.048 46.1903H116.948L112.298 40.0503L116.438 34.3803H116.428ZM44.7384 43.0403L41.9084 34.3803H39.1884L43.4084 46.1903H45.9583L50.1784 34.3803H47.5283L44.7384 43.0403ZM56.8684 44.3203C54.4284 44.3203 53.9184 42.1303 53.9184 40.2903C53.9184 38.4503 54.4284 36.2803 56.8684 36.2803C59.3084 36.2803 59.8184 38.4603 59.8184 40.2903C59.8184 42.1203 59.3084 44.3203 56.8684 44.3203ZM56.8684 34.1903C53.3884 34.1903 51.3184 36.4703 51.3184 40.3003C51.3184 44.1303 53.3884 46.3903 56.8684 46.3903C60.3484 46.3903 62.3983 44.1703 62.3983 40.3003C62.3983 36.4303 60.3284 34.1903 56.8684 34.1903ZM67.2984 34.3803H64.8283V44.0103C64.8283 45.6003 66.2684 46.1903 67.1784 46.1903H72.0984V44.1103H67.2984V34.3803ZM72.5783 36.4403H75.7683V46.1903H78.2484V36.4403H81.4384V34.3803H72.5883V36.4403H72.5783ZM29.8983 42.8303C28.7183 43.7503 26.8783 43.3603 25.7783 41.9503C24.6783 40.5503 24.7384 38.6603 25.9184 37.7403C27.0984 36.8203 28.9384 37.2103 30.0384 38.6203C31.1384 40.0203 31.0783 41.9103 29.8983 42.8303ZM26.1084 36.1403C26.8284 34.8903 27.9083 33.6503 29.2783 32.5803C29.6583 32.2803 30.0884 31.9703 30.4884 31.7403C30.5784 31.6903 30.7183 31.6103 30.6483 31.4803C30.5983 31.3703 30.4284 31.3903 30.2984 31.4303C28.6784 31.9903 26.9784 32.9603 25.3584 34.2303C20.7384 37.8403 18.5084 42.7103 20.3784 45.1003C21.9384 47.1003 25.8684 46.7203 29.8084 44.4403C29.0884 45.6903 28.0084 46.9303 26.6384 48.0003C26.2584 48.3003 25.8284 48.6103 25.4284 48.8403C25.3384 48.8903 25.1984 48.9703 25.2684 49.1003C25.3184 49.2103 25.4883 49.1903 25.6183 49.1503C27.2383 48.5903 28.9384 47.6203 30.5584 46.3503C30.7784 46.1803 30.9884 46.0003 31.1884 45.8303C35.3684 42.2803 37.3184 37.7603 35.5384 35.4903C33.9784 33.4903 30.0484 33.8703 26.1084 36.1503V36.1403Z" fill="white"/>
</svg>
