<?xml version="1.0" encoding="UTF-8"?> <svg xmlns="http://www.w3.org/2000/svg" width="16" height="16" viewBox="0 0 16 16" fill="none"><g clip-path="url(#clip0_23281_41741)"><rect width="16" height="16" fill="#242424"></rect><path d="M13.6433 5.37227L7.43433 11.592C7.3842 11.6421 7.32332 11.6815 7.25171 11.7102C7.18726 11.7316 7.11922 11.7424 7.04761 11.7424C6.98315 11.7352 6.92228 11.7209 6.86499 11.6994C6.8077 11.6708 6.75399 11.635 6.70386 11.592L3.65308 8.53047C3.59578 8.47318 3.55282 8.40872 3.52417 8.33711C3.50269 8.25833 3.49552 8.18314 3.50269 8.11152C3.50985 8.05423 3.52417 8.00052 3.54565 7.95039C3.5743 7.8931 3.61011 7.84297 3.65308 7.8C3.69604 7.75703 3.74259 7.7248 3.79272 7.70332C3.84285 7.68184 3.89657 7.66751 3.95386 7.66035C4.03263 7.64603 4.10783 7.65319 4.17944 7.68184C4.25106 7.70332 4.31551 7.74271 4.3728 7.8L7.06909 10.4963L12.9236 4.6418C12.9666 4.59883 13.0131 4.5666 13.0632 4.54512C13.1205 4.51647 13.1778 4.50215 13.2351 4.50215C13.3067 4.49499 13.3783 4.50573 13.45 4.53438C13.5287 4.55586 13.5932 4.59167 13.6433 4.6418C13.7006 4.69909 13.74 4.75996 13.7615 4.82441C13.7901 4.88887 13.8044 4.95332 13.8044 5.01777C13.7973 5.08223 13.7794 5.14668 13.7507 5.21113C13.7292 5.26842 13.6934 5.32214 13.6433 5.37227Z" fill="white"></path></g><defs><clipPath id="clip0_23281_41741"><rect width="16" height="16" rx="8" fill="white"></rect></clipPath></defs></svg> 