<?xml version="1.0" encoding="UTF-8"?> <svg xmlns="http://www.w3.org/2000/svg" width="512" height="85" viewBox="0 0 512 85" fill="none"><path d="M114.534 71.574C113.113 71.574 111.992 71.3007 111.172 70.754C110.352 70.2073 109.751 69.5787 109.368 68.868C109.04 68.1573 108.821 67.6653 108.712 67.392L93.296 22.702C92.5853 20.406 92.476 18.7113 92.968 17.618C93.46 16.47 94.8813 15.5133 97.232 14.748C98.7627 14.256 99.9927 14.0373 100.922 14.092C101.906 14.1467 102.699 14.5293 103.3 15.24C103.956 15.9507 104.53 17.0713 105.022 18.602L115.272 49.024L123.882 19.012C124.046 18.4653 124.292 17.8367 124.62 17.126C125.003 16.4153 125.604 15.7867 126.424 15.24C127.244 14.6933 128.392 14.42 129.868 14.42C131.563 14.42 132.82 14.7207 133.64 15.322C134.515 15.9233 135.116 16.5793 135.444 17.29C135.772 18.0007 136.018 18.5473 136.182 18.93L144.874 49.188L155.042 18.684C155.534 17.1533 156.081 16.0327 156.682 15.322C157.338 14.5567 158.158 14.1193 159.142 14.01C160.181 13.9007 161.465 14.1193 162.996 14.666C164.636 15.2673 165.784 15.896 166.44 16.552C167.096 17.208 167.424 18.028 167.424 19.012C167.479 19.9413 167.287 21.1713 166.85 22.702L151.434 67.392C151.325 67.72 151.079 68.2393 150.696 68.95C150.368 69.606 149.794 70.2073 148.974 70.754C148.209 71.3007 147.061 71.574 145.53 71.574C144.054 71.574 142.879 71.246 142.004 70.59C141.129 69.934 140.501 69.2507 140.118 68.54C139.79 67.7747 139.571 67.2553 139.462 66.982L130.032 36.396L120.602 66.982C120.547 67.2553 120.329 67.7747 119.946 68.54C119.563 69.3053 118.935 70.016 118.06 70.672C117.24 71.2733 116.065 71.574 114.534 71.574Z" fill="#3452EF"></path><path d="M114.534 71.574C113.113 71.574 111.992 71.3007 111.172 70.754C110.352 70.2073 109.751 69.5787 109.368 68.868C109.04 68.1573 108.821 67.6653 108.712 67.392L93.296 22.702C92.5853 20.406 92.476 18.7113 92.968 17.618C93.46 16.47 94.8813 15.5133 97.232 14.748C98.7627 14.256 99.9927 14.0373 100.922 14.092C101.906 14.1467 102.699 14.5293 103.3 15.24C103.956 15.9507 104.53 17.0713 105.022 18.602L115.272 49.024L123.882 19.012C124.046 18.4653 124.292 17.8367 124.62 17.126C125.003 16.4153 125.604 15.7867 126.424 15.24C127.244 14.6933 128.392 14.42 129.868 14.42C131.563 14.42 132.82 14.7207 133.64 15.322C134.515 15.9233 135.116 16.5793 135.444 17.29C135.772 18.0007 136.018 18.5473 136.182 18.93L144.874 49.188L155.042 18.684C155.534 17.1533 156.081 16.0327 156.682 15.322C157.338 14.5567 158.158 14.1193 159.142 14.01C160.181 13.9007 161.465 14.1193 162.996 14.666C164.636 15.2673 165.784 15.896 166.44 16.552C167.096 17.208 167.424 18.028 167.424 19.012C167.479 19.9413 167.287 21.1713 166.85 22.702L151.434 67.392C151.325 67.72 151.079 68.2393 150.696 68.95C150.368 69.606 149.794 70.2073 148.974 70.754C148.209 71.3007 147.061 71.574 145.53 71.574C144.054 71.574 142.879 71.246 142.004 70.59C141.129 69.934 140.501 69.2507 140.118 68.54C139.79 67.7747 139.571 67.2553 139.462 66.982L130.032 36.396L120.602 66.982C120.547 67.2553 120.329 67.7747 119.946 68.54C119.563 69.3053 118.935 70.016 118.06 70.672C117.24 71.2733 116.065 71.574 114.534 71.574Z" fill="#242424"></path><path d="M186.272 72.394C183.703 72.394 181.134 71.902 178.564 70.918C176.05 69.8793 173.754 68.4307 171.676 66.572C169.599 64.7133 167.959 62.4993 166.756 59.93C165.554 57.306 164.952 54.4087 164.952 51.238C164.952 48.286 165.499 45.5527 166.592 43.038C167.686 40.4687 169.216 38.2 171.184 36.232C173.152 34.264 175.394 32.7333 177.908 31.64C180.478 30.492 183.211 29.918 186.108 29.918C190.044 29.918 193.598 30.8747 196.768 32.788C199.994 34.6467 202.563 37.1887 204.476 40.414C206.39 43.6393 207.346 47.22 207.346 51.156C207.346 54.4907 206.718 57.47 205.46 60.094C204.258 62.6633 202.618 64.8773 200.54 66.736C198.518 68.5947 196.249 70.016 193.734 71C191.274 71.9293 188.787 72.394 186.272 72.394ZM186.108 60.012C187.42 60.012 188.76 59.684 190.126 59.028C191.493 58.372 192.641 57.388 193.57 56.076C194.5 54.764 194.964 53.0967 194.964 51.074C194.964 49.3247 194.582 47.794 193.816 46.482C193.051 45.17 191.985 44.1587 190.618 43.448C189.306 42.6827 187.776 42.3 186.026 42.3C184.386 42.3 182.91 42.6827 181.598 43.448C180.341 44.2133 179.302 45.2793 178.482 46.646C177.717 47.958 177.334 49.4613 177.334 51.156C177.334 53.124 177.772 54.7913 178.646 56.158C179.576 57.47 180.724 58.454 182.09 59.11C183.457 59.7113 184.796 60.012 186.108 60.012Z" fill="#3452EF"></path><path d="M186.272 72.394C183.703 72.394 181.134 71.902 178.564 70.918C176.05 69.8793 173.754 68.4307 171.676 66.572C169.599 64.7133 167.959 62.4993 166.756 59.93C165.554 57.306 164.952 54.4087 164.952 51.238C164.952 48.286 165.499 45.5527 166.592 43.038C167.686 40.4687 169.216 38.2 171.184 36.232C173.152 34.264 175.394 32.7333 177.908 31.64C180.478 30.492 183.211 29.918 186.108 29.918C190.044 29.918 193.598 30.8747 196.768 32.788C199.994 34.6467 202.563 37.1887 204.476 40.414C206.39 43.6393 207.346 47.22 207.346 51.156C207.346 54.4907 206.718 57.47 205.46 60.094C204.258 62.6633 202.618 64.8773 200.54 66.736C198.518 68.5947 196.249 70.016 193.734 71C191.274 71.9293 188.787 72.394 186.272 72.394ZM186.108 60.012C187.42 60.012 188.76 59.684 190.126 59.028C191.493 58.372 192.641 57.388 193.57 56.076C194.5 54.764 194.964 53.0967 194.964 51.074C194.964 49.3247 194.582 47.794 193.816 46.482C193.051 45.17 191.985 44.1587 190.618 43.448C189.306 42.6827 187.776 42.3 186.026 42.3C184.386 42.3 182.91 42.6827 181.598 43.448C180.341 44.2133 179.302 45.2793 178.482 46.646C177.717 47.958 177.334 49.4613 177.334 51.156C177.334 53.124 177.772 54.7913 178.646 56.158C179.576 57.47 180.724 58.454 182.09 59.11C183.457 59.7113 184.796 60.012 186.108 60.012Z" fill="#242424"></path><path d="M232.077 72.394C229.508 72.394 226.938 71.902 224.369 70.918C221.854 69.8793 219.558 68.4307 217.481 66.572C215.404 64.7133 213.764 62.4993 212.561 59.93C211.358 57.306 210.757 54.4087 210.757 51.238C210.757 48.286 211.304 45.5527 212.397 43.038C213.49 40.4687 215.021 38.2 216.989 36.232C218.957 34.264 221.198 32.7333 223.713 31.64C226.282 30.492 229.016 29.918 231.913 29.918C235.849 29.918 239.402 30.8747 242.573 32.788C245.798 34.6467 248.368 37.1887 250.281 40.414C252.194 43.6393 253.151 47.22 253.151 51.156C253.151 54.4907 252.523 57.47 251.265 60.094C250.062 62.6633 248.422 64.8773 246.345 66.736C244.322 68.5947 242.054 70.016 239.539 71C237.079 71.9293 234.592 72.394 232.077 72.394ZM231.913 60.012C233.225 60.012 234.564 59.684 235.931 59.028C237.298 58.372 238.446 57.388 239.375 56.076C240.304 54.764 240.769 53.0967 240.769 51.074C240.769 49.3247 240.386 47.794 239.621 46.482C238.856 45.17 237.79 44.1587 236.423 43.448C235.111 42.6827 233.58 42.3 231.831 42.3C230.191 42.3 228.715 42.6827 227.403 43.448C226.146 44.2133 225.107 45.2793 224.287 46.646C223.522 47.958 223.139 49.4613 223.139 51.156C223.139 53.124 223.576 54.7913 224.451 56.158C225.38 57.47 226.528 58.454 227.895 59.11C229.262 59.7113 230.601 60.012 231.913 60.012Z" fill="#3452EF"></path><path d="M232.077 72.394C229.508 72.394 226.938 71.902 224.369 70.918C221.854 69.8793 219.558 68.4307 217.481 66.572C215.404 64.7133 213.764 62.4993 212.561 59.93C211.358 57.306 210.757 54.4087 210.757 51.238C210.757 48.286 211.304 45.5527 212.397 43.038C213.49 40.4687 215.021 38.2 216.989 36.232C218.957 34.264 221.198 32.7333 223.713 31.64C226.282 30.492 229.016 29.918 231.913 29.918C235.849 29.918 239.402 30.8747 242.573 32.788C245.798 34.6467 248.368 37.1887 250.281 40.414C252.194 43.6393 253.151 47.22 253.151 51.156C253.151 54.4907 252.523 57.47 251.265 60.094C250.062 62.6633 248.422 64.8773 246.345 66.736C244.322 68.5947 242.054 70.016 239.539 71C237.079 71.9293 234.592 72.394 232.077 72.394ZM231.913 60.012C233.225 60.012 234.564 59.684 235.931 59.028C237.298 58.372 238.446 57.388 239.375 56.076C240.304 54.764 240.769 53.0967 240.769 51.074C240.769 49.3247 240.386 47.794 239.621 46.482C238.856 45.17 237.79 44.1587 236.423 43.448C235.111 42.6827 233.58 42.3 231.831 42.3C230.191 42.3 228.715 42.6827 227.403 43.448C226.146 44.2133 225.107 45.2793 224.287 46.646C223.522 47.958 223.139 49.4613 223.139 51.156C223.139 53.124 223.576 54.7913 224.451 56.158C225.38 57.47 226.528 58.454 227.895 59.11C229.262 59.7113 230.601 60.012 231.913 60.012Z" fill="#242424"></path><path d="M275.75 71.656C273.29 71.656 270.912 71.1367 268.616 70.098C266.375 69.0047 264.379 67.5013 262.63 65.588C260.881 63.6747 259.487 61.488 258.448 59.028C257.464 56.5133 256.972 53.862 256.972 51.074C256.972 48.3953 257.464 45.8533 258.448 43.448C259.487 40.988 260.881 38.8287 262.63 36.97C264.434 35.0567 266.457 33.5533 268.698 32.46C270.939 31.3667 273.29 30.82 275.75 30.82C278.374 30.82 280.67 31.3667 282.638 32.46C284.661 33.4987 286.355 34.9473 287.722 36.806C289.089 38.6647 290.1 40.824 290.756 43.284C291.467 45.744 291.849 48.3133 291.904 50.992C291.959 53.78 291.631 56.404 290.92 58.864C290.264 61.324 289.253 63.5107 287.886 65.424C286.519 67.3373 284.825 68.868 282.802 70.016C280.834 71.1093 278.483 71.656 275.75 71.656ZM277.39 59.52C278.866 59.52 280.178 59.1647 281.326 58.454C282.529 57.6887 283.485 56.6773 284.196 55.42C284.961 54.1627 285.344 52.7687 285.344 51.238C285.344 49.6527 284.989 48.2587 284.278 47.056C283.567 45.7987 282.611 44.8147 281.408 44.104C280.205 43.3933 278.839 43.038 277.308 43.038C275.832 43.038 274.465 43.3933 273.208 44.104C272.005 44.8147 271.049 45.7987 270.338 47.056C269.682 48.2587 269.354 49.6527 269.354 51.238C269.354 52.7687 269.709 54.1627 270.42 55.42C271.131 56.6773 272.115 57.6887 273.372 58.454C274.629 59.1647 275.969 59.52 277.39 59.52ZM291.74 71.738C289.881 71.738 288.487 71.4373 287.558 70.836C286.629 70.2347 286.027 69.3053 285.754 68.048V18.356C285.754 17.3173 285.809 16.3333 285.918 15.404C286.082 14.42 286.574 13.6273 287.394 13.026C288.214 12.4247 289.635 12.124 291.658 12.124C293.681 12.124 295.102 12.4247 295.922 13.026C296.797 13.5727 297.316 14.3107 297.48 15.24C297.699 16.1693 297.808 17.1807 297.808 18.274V65.506C297.808 66.5447 297.699 67.556 297.48 68.54C297.316 69.4693 296.797 70.2347 295.922 70.836C295.102 71.4373 293.708 71.738 291.74 71.738Z" fill="#3452EF"></path><path d="M275.75 71.656C273.29 71.656 270.912 71.1367 268.616 70.098C266.375 69.0047 264.379 67.5013 262.63 65.588C260.881 63.6747 259.487 61.488 258.448 59.028C257.464 56.5133 256.972 53.862 256.972 51.074C256.972 48.3953 257.464 45.8533 258.448 43.448C259.487 40.988 260.881 38.8287 262.63 36.97C264.434 35.0567 266.457 33.5533 268.698 32.46C270.939 31.3667 273.29 30.82 275.75 30.82C278.374 30.82 280.67 31.3667 282.638 32.46C284.661 33.4987 286.355 34.9473 287.722 36.806C289.089 38.6647 290.1 40.824 290.756 43.284C291.467 45.744 291.849 48.3133 291.904 50.992C291.959 53.78 291.631 56.404 290.92 58.864C290.264 61.324 289.253 63.5107 287.886 65.424C286.519 67.3373 284.825 68.868 282.802 70.016C280.834 71.1093 278.483 71.656 275.75 71.656ZM277.39 59.52C278.866 59.52 280.178 59.1647 281.326 58.454C282.529 57.6887 283.485 56.6773 284.196 55.42C284.961 54.1627 285.344 52.7687 285.344 51.238C285.344 49.6527 284.989 48.2587 284.278 47.056C283.567 45.7987 282.611 44.8147 281.408 44.104C280.205 43.3933 278.839 43.038 277.308 43.038C275.832 43.038 274.465 43.3933 273.208 44.104C272.005 44.8147 271.049 45.7987 270.338 47.056C269.682 48.2587 269.354 49.6527 269.354 51.238C269.354 52.7687 269.709 54.1627 270.42 55.42C271.131 56.6773 272.115 57.6887 273.372 58.454C274.629 59.1647 275.969 59.52 277.39 59.52ZM291.74 71.738C289.881 71.738 288.487 71.4373 287.558 70.836C286.629 70.2347 286.027 69.3053 285.754 68.048V18.356C285.754 17.3173 285.809 16.3333 285.918 15.404C286.082 14.42 286.574 13.6273 287.394 13.026C288.214 12.4247 289.635 12.124 291.658 12.124C293.681 12.124 295.102 12.4247 295.922 13.026C296.797 13.5727 297.316 14.3107 297.48 15.24C297.699 16.1693 297.808 17.1807 297.808 18.274V65.506C297.808 66.5447 297.699 67.556 297.48 68.54C297.316 69.4693 296.797 70.2347 295.922 70.836C295.102 71.4373 293.708 71.738 291.74 71.738Z" fill="#242424"></path><path d="M310.553 71.738C308.585 71.738 307.164 71.4373 306.289 70.836C305.414 70.2347 304.895 69.4693 304.731 68.54C304.567 67.6107 304.485 66.5993 304.485 65.506V36.806C304.485 35.7127 304.567 34.7287 304.731 33.854C304.95 32.9247 305.496 32.1867 306.371 31.64C307.246 31.0387 308.694 30.738 310.717 30.738C312.74 30.738 314.216 31.148 315.145 31.968C316.074 32.7333 316.539 34.018 316.539 35.822L315.473 36.724C315.582 36.4507 315.91 35.986 316.457 35.33C317.004 34.674 317.714 33.9907 318.589 33.28C319.464 32.5693 320.475 31.968 321.623 31.476C322.826 30.9293 324.11 30.656 325.477 30.656C327.281 30.656 328.894 30.9293 330.315 31.476C331.791 31.968 333.103 32.7333 334.251 33.772C335.454 34.756 336.492 36.0133 337.367 37.544C338.132 36.4507 339.062 35.3847 340.155 34.346C341.248 33.3073 342.533 32.4327 344.009 31.722C345.54 31.0113 347.234 30.656 349.093 30.656C352.264 30.656 354.942 31.476 357.129 33.116C359.37 34.7013 361.065 36.9973 362.213 40.004C363.361 43.0107 363.935 46.646 363.935 50.91V65.588C363.935 66.6267 363.826 67.638 363.607 68.622C363.443 69.5513 362.924 70.3167 362.049 70.918C361.174 71.4647 359.726 71.738 357.703 71.738C355.68 71.738 354.232 71.4373 353.357 70.836C352.537 70.2347 352.018 69.4693 351.799 68.54C351.635 67.556 351.553 66.5447 351.553 65.506V50.828C351.553 49.1333 351.362 47.712 350.979 46.564C350.596 45.416 349.995 44.5413 349.175 43.94C348.41 43.284 347.426 42.956 346.223 42.956C344.966 42.956 343.9 43.2567 343.025 43.858C342.15 44.4047 341.494 45.2793 341.057 46.482C340.62 47.63 340.401 49.106 340.401 50.91V65.588C340.401 66.6813 340.264 67.72 339.991 68.704C339.718 69.6333 339.116 70.3987 338.187 71C337.312 71.5467 335.891 71.7927 333.923 71.738C331.955 71.6833 330.561 71.3553 329.741 70.754C328.921 70.1527 328.429 69.3873 328.265 68.458C328.101 67.474 328.019 66.49 328.019 65.506V50.828C328.019 49.1333 327.828 47.712 327.445 46.564C327.062 45.3613 326.488 44.4593 325.723 43.858C324.958 43.2567 323.946 42.956 322.689 42.956C321.322 42.956 320.202 43.3113 319.327 44.022C318.452 44.7327 317.796 45.6893 317.359 46.892C316.976 48.04 316.785 49.352 316.785 50.828V65.588C316.785 66.6813 316.676 67.6927 316.457 68.622C316.293 69.5513 315.774 70.3167 314.899 70.918C314.024 71.4647 312.576 71.738 310.553 71.738Z" fill="#3452EF"></path><path d="M310.553 71.738C308.585 71.738 307.164 71.4373 306.289 70.836C305.414 70.2347 304.895 69.4693 304.731 68.54C304.567 67.6107 304.485 66.5993 304.485 65.506V36.806C304.485 35.7127 304.567 34.7287 304.731 33.854C304.95 32.9247 305.496 32.1867 306.371 31.64C307.246 31.0387 308.694 30.738 310.717 30.738C312.74 30.738 314.216 31.148 315.145 31.968C316.074 32.7333 316.539 34.018 316.539 35.822L315.473 36.724C315.582 36.4507 315.91 35.986 316.457 35.33C317.004 34.674 317.714 33.9907 318.589 33.28C319.464 32.5693 320.475 31.968 321.623 31.476C322.826 30.9293 324.11 30.656 325.477 30.656C327.281 30.656 328.894 30.9293 330.315 31.476C331.791 31.968 333.103 32.7333 334.251 33.772C335.454 34.756 336.492 36.0133 337.367 37.544C338.132 36.4507 339.062 35.3847 340.155 34.346C341.248 33.3073 342.533 32.4327 344.009 31.722C345.54 31.0113 347.234 30.656 349.093 30.656C352.264 30.656 354.942 31.476 357.129 33.116C359.37 34.7013 361.065 36.9973 362.213 40.004C363.361 43.0107 363.935 46.646 363.935 50.91V65.588C363.935 66.6267 363.826 67.638 363.607 68.622C363.443 69.5513 362.924 70.3167 362.049 70.918C361.174 71.4647 359.726 71.738 357.703 71.738C355.68 71.738 354.232 71.4373 353.357 70.836C352.537 70.2347 352.018 69.4693 351.799 68.54C351.635 67.556 351.553 66.5447 351.553 65.506V50.828C351.553 49.1333 351.362 47.712 350.979 46.564C350.596 45.416 349.995 44.5413 349.175 43.94C348.41 43.284 347.426 42.956 346.223 42.956C344.966 42.956 343.9 43.2567 343.025 43.858C342.15 44.4047 341.494 45.2793 341.057 46.482C340.62 47.63 340.401 49.106 340.401 50.91V65.588C340.401 66.6813 340.264 67.72 339.991 68.704C339.718 69.6333 339.116 70.3987 338.187 71C337.312 71.5467 335.891 71.7927 333.923 71.738C331.955 71.6833 330.561 71.3553 329.741 70.754C328.921 70.1527 328.429 69.3873 328.265 68.458C328.101 67.474 328.019 66.49 328.019 65.506V50.828C328.019 49.1333 327.828 47.712 327.445 46.564C327.062 45.3613 326.488 44.4593 325.723 43.858C324.958 43.2567 323.946 42.956 322.689 42.956C321.322 42.956 320.202 43.3113 319.327 44.022C318.452 44.7327 317.796 45.6893 317.359 46.892C316.976 48.04 316.785 49.352 316.785 50.828V65.588C316.785 66.6813 316.676 67.6927 316.457 68.622C316.293 69.5513 315.774 70.3167 314.899 70.918C314.024 71.4647 312.576 71.738 310.553 71.738Z" fill="#242424"></path><path d="M403.847 71.656C401.825 71.656 400.321 71.3007 399.337 70.59C398.408 69.8793 397.943 69.0047 397.943 67.966L398.763 66.572C398.435 67.1187 397.807 67.802 396.877 68.622C395.948 69.3873 394.745 70.098 393.269 70.754C391.793 71.3553 389.962 71.656 387.775 71.656C385.261 71.656 382.855 71.1093 380.559 70.016C378.318 68.9227 376.323 67.4193 374.573 65.506C372.824 63.538 371.43 61.324 370.391 58.864C369.407 56.404 368.915 53.8073 368.915 51.074C368.915 48.3953 369.407 45.8533 370.391 43.448C371.43 40.988 372.824 38.8287 374.573 36.97C376.377 35.0567 378.4 33.5533 380.641 32.46C382.883 31.3667 385.261 30.82 387.775 30.82C389.798 30.82 391.52 31.1207 392.941 31.722C394.363 32.2687 395.538 32.9247 396.467 33.69C397.451 34.4553 398.189 35.1933 398.681 35.904L398.025 34.756C397.971 33.444 398.408 32.46 399.337 31.804C400.321 31.0933 401.852 30.738 403.929 30.738C405.897 30.738 407.291 31.0387 408.111 31.64C408.986 32.2413 409.505 33.034 409.669 34.018C409.888 35.002 409.997 36.0407 409.997 37.134V65.424C409.997 66.4627 409.888 67.474 409.669 68.458C409.505 69.442 408.986 70.2347 408.111 70.836C407.291 71.3827 405.87 71.656 403.847 71.656ZM389.579 59.438C391.001 59.438 392.285 59.0827 393.433 58.372C394.636 57.6067 395.565 56.5953 396.221 55.338C396.932 54.0807 397.287 52.6867 397.287 51.156C397.287 49.5707 396.932 48.1767 396.221 46.974C395.511 45.7167 394.554 44.7327 393.351 44.022C392.149 43.2567 390.837 42.874 389.415 42.874C387.83 42.874 386.409 43.2567 385.151 44.022C383.949 44.7873 382.965 45.7987 382.199 47.056C381.489 48.3133 381.133 49.7347 381.133 51.32C381.133 52.796 381.489 54.1627 382.199 55.42C382.965 56.6227 383.976 57.6067 385.233 58.372C386.545 59.0827 387.994 59.438 389.579 59.438Z" fill="#3452EF"></path><path d="M403.847 71.656C401.825 71.656 400.321 71.3007 399.337 70.59C398.408 69.8793 397.943 69.0047 397.943 67.966L398.763 66.572C398.435 67.1187 397.807 67.802 396.877 68.622C395.948 69.3873 394.745 70.098 393.269 70.754C391.793 71.3553 389.962 71.656 387.775 71.656C385.261 71.656 382.855 71.1093 380.559 70.016C378.318 68.9227 376.323 67.4193 374.573 65.506C372.824 63.538 371.43 61.324 370.391 58.864C369.407 56.404 368.915 53.8073 368.915 51.074C368.915 48.3953 369.407 45.8533 370.391 43.448C371.43 40.988 372.824 38.8287 374.573 36.97C376.377 35.0567 378.4 33.5533 380.641 32.46C382.883 31.3667 385.261 30.82 387.775 30.82C389.798 30.82 391.52 31.1207 392.941 31.722C394.363 32.2687 395.538 32.9247 396.467 33.69C397.451 34.4553 398.189 35.1933 398.681 35.904L398.025 34.756C397.971 33.444 398.408 32.46 399.337 31.804C400.321 31.0933 401.852 30.738 403.929 30.738C405.897 30.738 407.291 31.0387 408.111 31.64C408.986 32.2413 409.505 33.034 409.669 34.018C409.888 35.002 409.997 36.0407 409.997 37.134V65.424C409.997 66.4627 409.888 67.474 409.669 68.458C409.505 69.442 408.986 70.2347 408.111 70.836C407.291 71.3827 405.87 71.656 403.847 71.656ZM389.579 59.438C391.001 59.438 392.285 59.0827 393.433 58.372C394.636 57.6067 395.565 56.5953 396.221 55.338C396.932 54.0807 397.287 52.6867 397.287 51.156C397.287 49.5707 396.932 48.1767 396.221 46.974C395.511 45.7167 394.554 44.7327 393.351 44.022C392.149 43.2567 390.837 42.874 389.415 42.874C387.83 42.874 386.409 43.2567 385.151 44.022C383.949 44.7873 382.965 45.7987 382.199 47.056C381.489 48.3133 381.133 49.7347 381.133 51.32C381.133 52.796 381.489 54.1627 382.199 55.42C382.965 56.6227 383.976 57.6067 385.233 58.372C386.545 59.0827 387.994 59.438 389.579 59.438Z" fill="#242424"></path><path d="M422.746 71.738C420.724 71.738 419.275 71.4647 418.4 70.918C417.58 70.3167 417.061 69.524 416.842 68.54C416.678 67.556 416.596 66.5447 416.596 65.506V36.888C416.596 35.7947 416.706 34.7833 416.924 33.854C417.143 32.9247 417.662 32.1867 418.482 31.64C419.357 31.0387 420.806 30.738 422.828 30.738C424.742 30.738 426.108 31.0113 426.928 31.558C427.803 32.05 428.35 32.6513 428.568 33.362C428.787 34.018 428.896 34.592 428.896 35.084L427.912 35.576C428.022 35.3573 428.295 34.9747 428.732 34.428C429.224 33.8267 429.88 33.2253 430.7 32.624C431.52 31.968 432.504 31.4213 433.652 30.984C434.855 30.5467 436.222 30.328 437.752 30.328C438.354 30.328 439.01 30.3827 439.72 30.492C440.486 30.5467 441.251 30.7107 442.016 30.984C442.836 31.2027 443.574 31.5307 444.23 31.968C444.886 32.3507 445.406 32.8427 445.788 33.444C446.226 34.0453 446.444 34.7833 446.444 35.658C446.444 37.8993 445.925 39.8127 444.886 41.398C443.848 42.9287 442.536 43.694 440.95 43.694C440.021 43.694 439.365 43.612 438.982 43.448C438.6 43.284 438.272 43.12 437.998 42.956C437.78 42.792 437.506 42.6553 437.178 42.546C436.85 42.382 436.249 42.3 435.374 42.3C434.554 42.3 433.762 42.4093 432.996 42.628C432.286 42.8467 431.602 43.202 430.946 43.694C430.345 44.1313 429.853 44.7053 429.47 45.416C429.142 46.072 428.978 46.81 428.978 47.63V65.67C428.978 66.7087 428.869 67.72 428.65 68.704C428.486 69.6333 427.967 70.3713 427.092 70.918C426.218 71.4647 424.769 71.738 422.746 71.738Z" fill="#3452EF"></path><path d="M422.746 71.738C420.724 71.738 419.275 71.4647 418.4 70.918C417.58 70.3167 417.061 69.524 416.842 68.54C416.678 67.556 416.596 66.5447 416.596 65.506V36.888C416.596 35.7947 416.706 34.7833 416.924 33.854C417.143 32.9247 417.662 32.1867 418.482 31.64C419.357 31.0387 420.806 30.738 422.828 30.738C424.742 30.738 426.108 31.0113 426.928 31.558C427.803 32.05 428.35 32.6513 428.568 33.362C428.787 34.018 428.896 34.592 428.896 35.084L427.912 35.576C428.022 35.3573 428.295 34.9747 428.732 34.428C429.224 33.8267 429.88 33.2253 430.7 32.624C431.52 31.968 432.504 31.4213 433.652 30.984C434.855 30.5467 436.222 30.328 437.752 30.328C438.354 30.328 439.01 30.3827 439.72 30.492C440.486 30.5467 441.251 30.7107 442.016 30.984C442.836 31.2027 443.574 31.5307 444.23 31.968C444.886 32.3507 445.406 32.8427 445.788 33.444C446.226 34.0453 446.444 34.7833 446.444 35.658C446.444 37.8993 445.925 39.8127 444.886 41.398C443.848 42.9287 442.536 43.694 440.95 43.694C440.021 43.694 439.365 43.612 438.982 43.448C438.6 43.284 438.272 43.12 437.998 42.956C437.78 42.792 437.506 42.6553 437.178 42.546C436.85 42.382 436.249 42.3 435.374 42.3C434.554 42.3 433.762 42.4093 432.996 42.628C432.286 42.8467 431.602 43.202 430.946 43.694C430.345 44.1313 429.853 44.7053 429.47 45.416C429.142 46.072 428.978 46.81 428.978 47.63V65.67C428.978 66.7087 428.869 67.72 428.65 68.704C428.486 69.6333 427.967 70.3713 427.092 70.918C426.218 71.4647 424.769 71.738 422.746 71.738Z" fill="#242424"></path><path d="M471.784 71.738C468.996 71.738 466.59 71.4373 464.568 70.836C462.6 70.2347 460.96 69.3053 459.648 68.048C458.336 66.7907 457.352 65.2053 456.696 63.292C456.094 61.324 455.794 59.0007 455.794 56.322V23.03C455.794 21.9367 455.876 20.9527 456.04 20.078C456.258 19.2033 456.805 18.4927 457.68 17.946C458.554 17.3447 459.976 17.044 461.944 17.044C463.912 17.044 465.333 17.3447 466.208 17.946C467.082 18.5473 467.602 19.3127 467.766 20.242C467.984 21.1713 468.094 22.1827 468.094 23.276V55.83C468.094 56.7047 468.148 57.4427 468.258 58.044C468.422 58.5907 468.64 59.0007 468.914 59.274C469.187 59.5473 469.57 59.7387 470.062 59.848C470.554 59.9573 471.155 60.012 471.866 60.012C473.068 60.012 474.134 60.1213 475.064 60.34C475.993 60.5587 476.704 61.0507 477.196 61.816C477.742 62.5813 478.016 63.866 478.016 65.67C478.016 67.638 477.715 69.0593 477.114 69.934C476.512 70.8087 475.72 71.328 474.736 71.492C473.806 71.656 472.822 71.738 471.784 71.738ZM453.252 31.394H462.272L473.588 31.066C474.626 31.066 475.61 31.1753 476.54 31.394C477.469 31.558 478.234 32.0773 478.836 32.952C479.437 33.8267 479.738 35.2753 479.738 37.298C479.738 39.1567 479.437 40.5233 478.836 41.398C478.289 42.2727 477.551 42.8467 476.622 43.12C475.692 43.3387 474.681 43.448 473.588 43.448L462.846 43.202H452.924C451.338 43.1473 450.218 42.6827 449.562 41.808C448.96 40.8787 448.66 39.348 448.66 37.216C448.66 35.248 449.042 33.7993 449.808 32.87C450.573 31.886 451.721 31.394 453.252 31.394Z" fill="#3452EF"></path><path d="M471.784 71.738C468.996 71.738 466.59 71.4373 464.568 70.836C462.6 70.2347 460.96 69.3053 459.648 68.048C458.336 66.7907 457.352 65.2053 456.696 63.292C456.094 61.324 455.794 59.0007 455.794 56.322V23.03C455.794 21.9367 455.876 20.9527 456.04 20.078C456.258 19.2033 456.805 18.4927 457.68 17.946C458.554 17.3447 459.976 17.044 461.944 17.044C463.912 17.044 465.333 17.3447 466.208 17.946C467.082 18.5473 467.602 19.3127 467.766 20.242C467.984 21.1713 468.094 22.1827 468.094 23.276V55.83C468.094 56.7047 468.148 57.4427 468.258 58.044C468.422 58.5907 468.64 59.0007 468.914 59.274C469.187 59.5473 469.57 59.7387 470.062 59.848C470.554 59.9573 471.155 60.012 471.866 60.012C473.068 60.012 474.134 60.1213 475.064 60.34C475.993 60.5587 476.704 61.0507 477.196 61.816C477.742 62.5813 478.016 63.866 478.016 65.67C478.016 67.638 477.715 69.0593 477.114 69.934C476.512 70.8087 475.72 71.328 474.736 71.492C473.806 71.656 472.822 71.738 471.784 71.738ZM453.252 31.394H462.272L473.588 31.066C474.626 31.066 475.61 31.1753 476.54 31.394C477.469 31.558 478.234 32.0773 478.836 32.952C479.437 33.8267 479.738 35.2753 479.738 37.298C479.738 39.1567 479.437 40.5233 478.836 41.398C478.289 42.2727 477.551 42.8467 476.622 43.12C475.692 43.3387 474.681 43.448 473.588 43.448L462.846 43.202H452.924C451.338 43.1473 450.218 42.6827 449.562 41.808C448.96 40.8787 448.66 39.348 448.66 37.216C448.66 35.248 449.042 33.7993 449.808 32.87C450.573 31.886 451.721 31.394 453.252 31.394Z" fill="#242424"></path><path d="M493.731 72.553C491.656 72.553 489.881 71.843 488.406 70.423C486.932 68.9485 486.194 67.2009 486.194 65.1802C486.194 63.1049 486.932 61.3572 488.406 59.9373C489.881 58.4627 491.656 57.7254 493.731 57.7254C495.752 57.7254 497.499 58.4627 498.974 59.9373C500.503 61.3572 501.268 63.1049 501.268 65.1802C501.268 67.2009 500.503 68.9485 498.974 70.423C497.499 71.843 495.752 72.553 493.731 72.553Z" fill="#3452EF"></path><g clip-path="url(#clip0_15064_26019)"><path d="M54.6121 5.68766C50.6797 5.0327 46.1247 4.75275 43.042 5.2639C39.1411 5.91071 31.3395 9.14477 28.7389 11.0852C26.1383 13.0256 24.838 20.7873 21.5873 22.7277C18.9867 24.0213 0.782822 27.9022 0.132681 28.549C-0.51746 29.1958 1.43298 32.4298 1.43298 32.4298C1.43298 32.4298 3.80023 41.7644 7.93438 46.0128C8.86461 46.9687 10.0278 47.8316 11.2556 48.5901C16.3203 51.7192 22.5776 51.6767 28.4185 50.4881C30.3362 50.0978 32.1328 49.2389 33.6394 47.9956C36.8266 45.3652 39.3983 42.0545 41.1475 38.3202L41.5456 37.4704C42.0936 36.3006 43.0234 35.3497 44.1837 34.7725L44.223 34.7529C44.6422 34.5444 45.1514 34.7262 45.3418 35.1522L46.0069 36.6412C47.0617 39.0022 47.8768 41.462 48.4401 43.9841L48.7487 45.3655C48.8394 45.7719 49.1212 46.11 49.5058 46.2739L53.2141 47.8551C53.3661 47.9199 53.5043 48.013 53.6213 48.1294L57.1574 51.6474C57.4985 51.9867 57.8072 52.3568 58.0796 52.7528L61.68 57.988C61.8134 58.1819 61.8306 58.4324 61.725 58.6425L59.563 62.9444C59.3932 63.2822 59.0836 63.5293 58.7153 63.6209L54.6806 64.6244C54.2921 64.721 53.8909 64.7575 53.4912 64.7327L46.6689 64.3085C44.6917 64.1856 42.7067 64.3017 40.7576 64.6542C37.9522 65.1617 35.1812 65.888 32.6134 67.1213C30.0954 68.3307 27.1453 69.9614 24.6948 71.8217C20.6984 74.8555 23.712 79 28.7389 79H48.8932C62.3979 79 74.2154 71.8133 80.6924 61.0744C86.8222 50.9113 83.8253 37.9852 76.6674 28.5107C76.3676 28.1139 76.1991 27.9022 76.1991 27.9022C76.1991 27.9022 77.4994 22.7277 77.4994 22.0809C77.4994 21.4341 76.8493 19.4937 76.1991 18.8469C75.7747 18.4246 66.4828 12.2129 60.0828 7.95114C58.4224 6.84549 56.5826 6.01587 54.6121 5.68766ZM45.8557 14.8347C45.7635 14.6344 45.9576 14.4446 46.1631 14.5264L53.501 17.4465C54.6873 17.9186 55.5646 18.9372 55.8721 20.1709C56.5325 22.8201 57.7448 27.404 58.6454 29.1958C59.9456 31.783 65.1468 36.9575 67.0972 36.9575C68.4822 36.9575 70.1952 36.6313 71.0718 36.4422C71.1478 36.4258 71.1804 36.5219 71.1087 36.5518C70.2129 36.9261 68.33 37.6043 66.447 37.6043C65.6422 37.6043 64.4016 36.9848 63.0719 36.1293C58.5639 33.2288 55.1834 29.0513 53.8296 23.8829C53.4913 22.5914 52.6222 21.1155 51.4455 20.4747C50.4137 19.913 49.1788 19.1309 48.2431 18.2001C46.9061 16.87 46.1801 15.5398 45.8557 14.8347ZM29.389 19.4937C29.389 19.4937 31.9896 20.1405 32.6397 20.7873C33.2899 21.4341 33.2899 22.0809 33.2899 22.0809L30.6603 24.1738C30.3699 24.4049 29.9364 24.2594 29.8462 23.9004C29.5426 22.692 29.389 21.4511 29.389 20.2054V19.4937Z" fill="#3452EF"></path><path d="M52.3579 53.0131C52.2554 52.7581 52.4441 52.4808 52.7201 52.4808H54.4181C54.613 52.4808 54.7861 52.6049 54.8477 52.7889C55.1706 53.7527 54.8052 54.8122 53.9556 55.3757L53.8243 55.4628C53.6284 55.5927 53.362 55.5104 53.2746 55.2929L52.3579 53.0131Z" fill="#3452EF"></path></g><defs><clipPath id="clip0_15064_26019"><rect width="84" height="84" fill="white"></rect></clipPath></defs></svg> 