<?xml version="1.0" encoding="UTF-8"?> <svg xmlns="http://www.w3.org/2000/svg" width="64" height="64" viewBox="0 0 64 64" fill="none"><path d="M38.5 47.25C39.4665 47.25 40.25 46.4665 40.25 45.5C40.25 44.5335 39.4665 43.75 38.5 43.75C37.5335 43.75 36.75 44.5335 36.75 45.5C36.75 46.4665 37.5335 47.25 38.5 47.25Z" fill="#3452EF"></path><path d="M25.5 34.25C26.4665 34.25 27.25 33.4665 27.25 32.5C27.25 31.5335 26.4665 30.75 25.5 30.75C24.5335 30.75 23.75 31.5335 23.75 32.5C23.75 33.4665 24.5335 34.25 25.5 34.25Z" fill="#3452EF"></path><path d="M45.183 9.70999C44.912 9.46372 44.5706 9.30861 44.2068 9.26649C43.843 9.22437 43.4752 9.29736 43.1551 9.47519C42.835 9.65302 42.5787 9.92675 42.4222 10.2579C42.2658 10.589 42.2171 10.9608 42.283 11.321C42.4652 12.1791 42.3251 13.0742 41.8895 13.8356C41.4538 14.597 40.7531 15.1713 39.921 15.449C39.1858 15.7488 38.3643 15.7588 37.622 15.4769C36.8797 15.1951 36.2719 14.6423 35.921 13.93C28.806 1.03599 14.674 0.276994 14.076 0.251994C13.7244 0.241628 13.3775 0.335628 13.0793 0.522138C12.781 0.708649 12.5446 0.979315 12.4 1.29999C12.2578 1.62273 12.2166 1.98093 12.2818 2.32752C12.3469 2.67411 12.5154 2.9929 12.765 3.24199C18.012 8.48899 16.134 12.651 12.065 20.158C9.339 25.185 6.25 30.887 6.25 38C6.25 44.8293 8.96294 51.3789 13.792 56.208C18.6211 61.0371 25.1707 63.75 32 63.75C38.8293 63.75 45.3789 61.0371 50.208 56.208C55.0371 51.3789 57.75 44.8293 57.75 38C57.75 21.421 45.7 10.181 45.183 9.70999ZM20.25 32.5C20.25 31.4616 20.5579 30.4466 21.1348 29.5833C21.7117 28.7199 22.5316 28.047 23.4909 27.6496C24.4502 27.2523 25.5058 27.1483 26.5242 27.3509C27.5426 27.5534 28.4781 28.0535 29.2123 28.7877C29.9465 29.5219 30.4465 30.4574 30.6491 31.4758C30.8517 32.4942 30.7477 33.5498 30.3504 34.5091C29.953 35.4684 29.2801 36.2883 28.4167 36.8652C27.5534 37.4421 26.5384 37.75 25.5 37.75C24.1081 37.7484 22.7737 37.1948 21.7894 36.2106C20.8052 35.2263 20.2516 33.8919 20.25 32.5ZM26.434 50C26.16 50.3577 25.7586 50.5958 25.3134 50.665C24.8681 50.7341 24.4134 50.6289 24.0438 50.3711C23.6743 50.1134 23.4183 49.7231 23.3293 49.2814C23.2403 48.8397 23.3251 48.3807 23.566 48L37.566 28C37.8421 27.648 38.2425 27.4149 38.6849 27.3488C39.1274 27.2826 39.5784 27.3884 39.9454 27.6443C40.3124 27.9002 40.5675 28.2869 40.6583 28.7249C40.7492 29.163 40.6689 29.6192 40.434 30L26.434 50ZM38.5 50.75C37.4616 50.75 36.4466 50.4421 35.5833 49.8652C34.7199 49.2883 34.047 48.4684 33.6496 47.5091C33.2523 46.5498 33.1483 45.4942 33.3509 44.4758C33.5534 43.4574 34.0535 42.5219 34.7877 41.7877C35.5219 41.0535 36.4574 40.5534 37.4758 40.3509C38.4942 40.1483 39.5498 40.2523 40.5091 40.6496C41.4684 41.047 42.2883 41.7199 42.8652 42.5833C43.4421 43.4466 43.75 44.4616 43.75 45.5C43.7484 46.8919 43.1948 48.2263 42.2106 49.2106C41.2263 50.1948 39.8919 50.7484 38.5 50.75Z" fill="#3452EF"></path></svg> 