<?xml version="1.0" encoding="UTF-8"?> <svg xmlns="http://www.w3.org/2000/svg" width="64" height="64" viewBox="0 0 64 64" fill="none"><path fill-rule="evenodd" clip-rule="evenodd" d="M34.1073 46.5328C30.8995 46.7538 27.7462 47.5115 24.6463 48.7945L18.6213 51.3156C17.7011 51.7008 16.1888 52.532 15.2218 52.3222C14.2853 52.119 13.7299 51.4349 13.8046 50.4717C13.8331 50.1015 13.9686 49.7428 14.2076 49.395L16.3301 47.2821C16.3439 47.2685 16.354 47.2516 16.3595 47.2331C16.3649 47.2145 16.3655 47.1949 16.3613 47.176C16.3571 47.1571 16.3481 47.1396 16.3352 47.1252C16.3224 47.1107 16.306 47.0998 16.2878 47.0934C12.679 45.816 10.7217 43.3337 10.5463 39.3668C10.4905 38.1058 10.622 36.8854 10.9298 35.7333C10.9373 35.7054 10.934 35.6756 10.9204 35.6501C10.9068 35.6246 10.884 35.6051 10.8566 35.5958C6.99329 34.2711 3.6338 31.0015 4.22964 26.9342C4.72424 23.5579 7.71675 21.2055 11.2095 20.3428C17.5715 18.7714 23.6399 21.1433 29.038 20.051C30.7816 19.6981 32.0858 19.1382 32.9678 18.479C34.755 17.1435 34.647 15.5482 32.6686 14.4388C30.8667 13.4285 27.9068 13.1275 25.4334 13.5198C24.5934 13.653 23.748 13.8667 22.8977 14.1571C22.7911 14.1942 22.6781 14.2099 22.5655 14.2031C22.4528 14.1964 22.3425 14.1674 22.2411 14.1179C22.1396 14.0683 22.049 13.9991 21.9745 13.9144C21.8999 13.8296 21.8428 13.7309 21.8066 13.624C21.7704 13.5171 21.7557 13.404 21.7634 13.2914C21.7711 13.1788 21.801 13.0688 21.8514 12.9678C21.9018 12.8668 21.9718 12.7767 22.0571 12.7029C22.1425 12.629 22.2417 12.5728 22.3489 12.5375C24.1918 11.9107 26.0762 11.5901 28.0109 11.6515C30.3679 11.7264 32.2086 12.2196 33.505 12.9465C36.5754 14.6681 36.762 17.7806 33.9917 19.8509C32.9261 20.6472 31.3896 21.3157 29.3726 21.7239C23.6065 22.8909 17.606 20.5233 11.6177 22.0025C5.1186 23.6078 3.60206 29.9419 9.84897 33.2957C10.3599 33.5706 10.8926 33.8028 11.4418 33.9899C11.4685 33.9991 11.4976 33.998 11.5235 33.9869C11.5495 33.9758 11.5703 33.9554 11.5821 33.9298C12.4026 32.159 13.692 30.6157 15.4054 29.4251C23.275 23.9566 33.4718 27.5272 38.4712 29.746C39.8286 30.3483 40.9412 31.3453 41.3971 31.5954C41.487 31.6447 41.5919 31.5586 41.561 31.4608C41.1725 30.2339 39.4564 28.9184 39.2014 28.2637L38.9348 27.829C38.2442 26.1201 38.3438 24.4425 39.36 23.4696C40.9116 21.9839 44.012 22.704 46.2849 25.0778C47.0799 25.9081 47.6682 26.8308 48.031 27.7431C48.0377 27.7607 48.0487 27.7763 48.0631 27.7884C48.0774 27.8006 48.0946 27.8088 48.113 27.8125C51.1797 28.4724 53.9989 29.7521 56.5201 31.7233C58.091 32.9516 59.4821 34.4581 59.7856 35.9938C60.6016 40.1209 51.8691 43.3388 48.3793 44.7177C48.3595 44.7257 48.3424 44.7389 48.3298 44.756C48.3172 44.7732 48.3096 44.7935 48.3079 44.8147C48.3062 44.8359 48.3104 44.8571 48.3201 44.8761C48.3299 44.895 48.3447 44.9108 48.3629 44.9218C49.317 45.4924 50.8649 46.2761 51.9228 47.1517C53.2597 48.2581 53.8127 50.4186 51.9061 51.1022C51.105 51.3894 50.075 51.1165 49.1486 50.6348C45.1931 48.5781 45.7909 47.5427 40.2721 46.7618C38.1951 46.4681 36.1402 46.3927 34.1073 46.5328ZM51.6908 34.3167C51.7039 34.4508 51.7434 34.5809 51.8069 34.6998C51.8704 34.8186 51.9567 34.9237 52.0608 35.0092C52.165 35.0947 52.2849 35.1588 52.4138 35.1979C52.5427 35.237 52.6781 35.2504 52.8122 35.2372C52.9462 35.224 53.0764 35.1845 53.1952 35.121C53.314 35.0575 53.4192 34.9712 53.5047 34.8671C53.5901 34.763 53.6543 34.643 53.6934 34.5141C53.7325 34.3852 53.7458 34.2498 53.7326 34.1157L53.6538 33.3397C53.6244 33.0711 53.4903 32.8249 53.2805 32.6547C53.0708 32.4844 52.8023 32.4037 52.5334 32.4302C52.2646 32.4566 52.017 32.5881 51.8444 32.796C51.6719 33.0039 51.5883 33.2715 51.6119 33.5406L51.6908 34.3167Z" fill="#3452EF"></path></svg> 