<?xml version="1.0" encoding="UTF-8"?> <svg xmlns="http://www.w3.org/2000/svg" width="64" height="64" viewBox="0 0 64 64" fill="none"><path d="M34.5829 25.3447L34.5724 25.3728H18.7596C16.4642 25.3728 14.3276 26.0638 12.5454 27.2478H7.5C5.43225 27.2478 3.75 25.5656 3.75 23.4978C3.75 21.4301 5.43225 19.7478 7.5 19.7478H13.125C14.1605 19.7478 15 18.9083 15 17.8728C15 16.8373 14.1605 15.9978 13.125 15.9978H7.5C3.3645 15.9978 0 19.3623 0 23.4978C0 27.6333 3.3645 30.9978 7.5 30.9978H9.01437C8.05187 32.6561 7.5 34.581 7.5 36.6325V60.1228C7.5 61.1583 8.3395 61.9978 9.375 61.9978H16.875C17.9105 61.9978 18.75 61.1583 18.75 60.1228V44.2988L35.875 45.837V60.2478C35.875 61.2833 36.7145 62.1228 37.75 62.1228H45.25C46.2855 62.1228 47.125 61.2833 47.125 60.2478V42.4336L49.4354 30.8815L34.5829 25.3447ZM62.125 14.1228H56.4673C56.1628 11.2607 53.7402 8.99783 50.7562 8.99783H47.6101L46.4621 3.37283C46.0865 1.53296 43.5236 1.33271 42.8677 3.09358L35.8914 21.8303L50.1802 27.157L50.5371 25.3728H54.625C59.7944 25.3728 64 21.1672 64 15.9978C64 14.9623 63.1605 14.1228 62.125 14.1228Z" fill="#3452EF"></path></svg> 