<?xml version="1.0" encoding="UTF-8"?> <svg xmlns="http://www.w3.org/2000/svg" width="64" height="64" viewBox="0 0 64 64" fill="none"><path d="M38 50C38 50 40.39 52.39 40.9 57.16C41.01 58.19 41.85 59 42.89 59H48C48 59 48 55 45 55C45 55 43 51 45 46C47 41 51 41 51 33C51 25 49 22 49 22C49 22 49 21 50 21C51 21 57 21 57 19C57 17 55 16 55 14C55 12 54 9 50 9C51 8 51 5 51 5C51 5 44 5 41 10C38 15 41 23 36 27C31 31 11.75 35.81 20.46 57.71C20.77 58.48 21.5 59 22.33 59H38C38 59 38 55 34 55C34 55 38 52 38 45" fill="#3452EF"></path><path d="M19.53 58.08C19.64 58.36 19.79 58.62 19.97 58.84C16.1 57.8 9 51.72 9 47C9 41.82 18 32.45 18 29C18 25.55 16.59 24 14 24C11.41 24 7 27 6 25C4.39 21.78 11.41 20 14 20C16.59 20 22 22.09 22 29C22 34 13 41.82 13 47C13 50.33 15.9 52.28 17.97 53.24C18.34 54.76 18.85 56.37 19.53 58.08Z" fill="#3452EF"></path></svg> 