<?xml version="1.0" encoding="UTF-8"?> <svg xmlns="http://www.w3.org/2000/svg" width="64" height="64" viewBox="0 0 64 64" fill="none"><g clip-path="url(#clip0_23153_68343)"><path d="M31.096 0.206718L2.43737 14.042C2.26128 14.127 2.11274 14.2599 2.0088 14.4255C1.90485 14.5911 1.84973 14.7827 1.84975 14.9782V49.0217C1.84976 49.2172 1.9049 49.4088 2.00884 49.5744C2.11278 49.74 2.2613 49.8729 2.43737 49.958L31.096 63.7932C31.3779 63.9293 31.6869 64 32 64C32.3131 64 32.6221 63.9293 32.904 63.7932L61.5626 49.958C61.7387 49.873 61.8872 49.74 61.9912 49.5744C62.0951 49.4088 62.1503 49.2172 62.1502 49.0217V14.9782C62.1502 14.7827 62.0951 14.5911 61.9912 14.4255C61.8872 14.2599 61.7387 14.127 61.5626 14.042L32.904 0.206718C32.6221 0.0706621 32.313 0 32 0C31.6869 0 31.3779 0.0706621 31.096 0.206718Z" fill="#FABA5B"></path><path d="M31.096 0.206718L2.43737 14.042C2.26128 14.127 2.11274 14.2599 2.0088 14.4255C1.90485 14.5911 1.84973 14.7827 1.84975 14.9782V49.0217C1.84976 49.2172 1.9049 49.4088 2.00884 49.5744C2.11278 49.74 2.2613 49.8729 2.43737 49.958L31.096 63.7932C31.3779 63.9293 31.6869 64 32 64C32.3131 64 32.6221 63.9293 32.904 63.7932L61.5626 49.958C61.7387 49.873 61.8872 49.74 61.9912 49.5744C62.0951 49.4088 62.1503 49.2172 62.1502 49.0217V14.9782C62.1502 14.7827 62.0951 14.5911 61.9912 14.4255C61.8872 14.2599 61.7387 14.127 61.5626 14.042L32.904 0.206718C32.6221 0.0706621 32.313 0 32 0C31.6869 0 31.3779 0.0706621 31.096 0.206718Z" fill="white" fill-opacity="0.3"></path><path d="M2.02262 14.4092C1.91059 14.5779 1.85049 14.7758 1.84975 14.9783V49.0218C1.84976 49.2173 1.9049 49.4089 2.00884 49.5745C2.11278 49.7401 2.2613 49.873 2.43737 49.9581L31.096 63.7932C31.3779 63.9293 31.6869 64 32 63.9999C32.3131 63.9999 32.6221 63.9293 32.904 63.7932L61.5626 49.958C61.7387 49.873 61.8872 49.7401 61.9912 49.5745C62.0951 49.4089 62.1502 49.2173 62.1502 49.0218V14.9783C62.1495 14.7758 62.0894 14.5779 61.9774 14.4092L32 28.8811L2.02262 14.4092Z" fill="#FABA5B"></path><path d="M14.0475 44.4529C14.188 44.5208 14.3421 44.5562 14.4982 44.5564C14.8851 44.5564 15.2567 44.34 15.4352 43.9686C15.685 43.4519 15.4677 42.8305 14.951 42.5807L6.46012 38.482C5.94537 38.2342 5.32099 38.4505 5.07224 38.9662C4.82249 39.483 5.03974 40.1044 5.55649 40.3541L14.0475 44.4529Z" fill="#242424"></path><path d="M9.97512 47.1037C10.1157 47.1717 10.2697 47.2071 10.4259 47.2072C10.8127 47.2072 11.1844 46.9909 11.363 46.6196C11.4224 46.4967 11.457 46.3632 11.4648 46.2269C11.4727 46.0906 11.4535 45.9541 11.4086 45.8252C11.3636 45.6963 11.2936 45.5776 11.2027 45.4757C11.1118 45.3739 11.0017 45.291 10.8787 45.2317L6.45412 43.0954C5.93837 42.8477 5.31499 43.0629 5.06624 43.5797C5.00682 43.7026 4.97222 43.836 4.9644 43.9723C4.95658 44.1086 4.9757 44.2451 5.02068 44.374C5.06565 44.5029 5.1356 44.6217 5.22651 44.7235C5.31742 44.8254 5.42751 44.9083 5.55049 44.9676L9.97512 47.1037Z" fill="#242424"></path><path d="M21.7359 4.76367L51.8186 19.2965L51.8186 30.8189C51.8186 31.0144 51.7635 31.206 51.6596 31.3716C51.5556 31.5372 51.4071 31.6701 51.231 31.7551L44.702 34.907C44.3567 35.0736 43.9561 34.8221 43.9561 34.4389L43.9561 23.1628L13.8059 8.60742L21.7359 4.76367Z" fill="#242424"></path></g><defs><clipPath id="clip0_23153_68343"><rect width="64" height="64" fill="white"></rect></clipPath></defs></svg> 