<?xml version="1.0" encoding="UTF-8"?> <svg xmlns="http://www.w3.org/2000/svg" width="64" height="64" viewBox="0 0 64 64" fill="none"><g clip-path="url(#clip0_23153_68354)"><path d="M43.2447 45.0163C45.8912 45.0163 47.2413 48.1936 45.4043 50.0987L34.1595 61.7604C32.9797 62.9839 31.0201 62.9839 29.8404 61.7604L18.5956 50.0987C16.7586 48.1936 18.1087 45.0163 20.7552 45.0163H23.3912V35.7476H40.6087V45.0163H43.2447Z" fill="#3452EF"></path><path d="M43.2447 45.0163C45.8912 45.0163 47.2413 48.1936 45.4043 50.0987L34.1595 61.7604C32.9797 62.9839 31.0201 62.9839 29.8404 61.7604L18.5956 50.0987C16.7586 48.1936 18.1087 45.0163 20.7552 45.0163H23.3912V35.7476H40.6087V45.0163H43.2447Z" fill="#242424"></path><path d="M52.1812 20.1812C52.1812 31.3263 43.145 40.3613 32 40.3613C20.855 40.3613 11.8187 31.3263 11.8187 20.1812C11.8187 9.035 20.855 0 32 0C43.145 0 52.1812 9.035 52.1812 20.1812Z" fill="#FABA5B"></path><path d="M38.8512 24.0849C38.8512 26.9986 36.6825 29.4149 33.875 29.8074V30.6061C33.875 31.6417 33.0355 32.4811 32 32.4811V32.4811C30.9645 32.4811 30.125 31.6417 30.125 30.6061V29.8111C27.3375 29.4361 25.18 27.0424 25.18 24.1536H28.93C28.93 25.2349 29.8087 26.1136 30.89 26.1136H33.0725C34.1912 26.1136 35.1012 25.2036 35.1012 24.0849C35.1012 22.9661 34.1912 22.0561 33.0725 22.0561H30.9275C27.7412 22.0561 25.1487 19.4636 25.1487 16.2761C25.1487 13.3624 27.3175 10.9461 30.125 10.5549V9.75488C30.125 8.71935 30.9645 7.87988 32 7.87988V7.87988C33.0355 7.87988 33.875 8.71935 33.875 9.75488V10.5611C36.66 10.9736 38.805 13.3799 38.805 16.2786H35.055C35.055 15.1586 34.1437 14.2474 33.0225 14.2474H30.9275C29.8087 14.2474 28.8987 15.1574 28.8987 16.2761C28.8987 17.3949 29.8087 18.3061 30.9275 18.3061H33.0725C36.2587 18.3061 38.8512 20.8986 38.8512 24.0849Z" fill="white"></path></g><defs><clipPath id="clip0_23153_68354"><rect width="64" height="64" fill="white"></rect></clipPath></defs></svg> 