<?xml version="1.0" encoding="UTF-8"?> <svg xmlns="http://www.w3.org/2000/svg" width="24" height="22" viewBox="0 0 24 22" fill="none"><path d="M3.81188 9.2103C4.24599 9.0894 4.66719 8.8951 5.11419 8.83896C7.10849 8.59716 9.24032 10.415 10.5985 11.6327C12.2704 13.1353 14.1057 14.4134 15.7605 15.9463C15.9582 16.1276 16.1602 16.3176 16.2934 16.5508C16.4052 16.7408 16.4653 16.9524 16.5255 17.1639C16.9596 18.6968 17.2562 19.7072 18.1674 20.9508C18.9066 21.551 20.166 21.5942 20.7075 20.8083C21.1373 20.1822 20.974 19.2927 21.3565 18.6277C21.8809 17.721 23.2176 17.5698 23.7763 16.6847C24.3523 15.7779 23.7462 14.4566 22.7534 14.0507C21.8637 13.688 20.8579 13.9125 19.9081 14.0378C18.378 14.2364 17.282 13.6578 16.0656 12.8115C13.2289 10.8425 8.21738 8.10059 8.21309 4.08059C8.21309 2.99679 7.82196 1.87413 6.98384 1.18757C6.12853 0.483751 4.55545 0.311033 3.76031 1.23507C3.05113 2.05548 3.5497 3.04861 3.42936 3.95969C3.36489 4.45194 2.74167 4.59875 2.25599 4.68942C1.55541 4.81464 0.837633 5.07804 0.394934 5.63937C0.374877 5.66528 0.354819 5.69262 0.334762 5.72141C-0.262667 6.58068 -0.0219766 7.88038 0.751672 8.59716C1.55111 9.33984 2.76746 9.50392 3.81188 9.2103Z" fill="#FABA5B"></path></svg> 