<?xml version="1.0" encoding="UTF-8"?> <svg xmlns="http://www.w3.org/2000/svg" width="24" height="24" viewBox="0 0 24 24" fill="none"><path d="M0.113689 19.0737C0.465204 20.205 1.62855 21.0594 2.86723 21.1148C4.15612 21.1623 5.35294 20.2604 6.63346 20.5689C7.95583 20.8933 9.18613 22.3094 10.2825 23.0294C10.9688 23.4803 11.7053 23.9155 12.5339 23.9867C13.1616 24.05 13.8061 23.8838 14.3501 23.5753C15.8482 22.7287 16.4843 20.7588 15.7478 19.2714C15.2037 18.1797 14.0655 17.4043 13.6219 16.273C13.0361 14.7619 13.7475 12.792 12.5423 11.6606C11.4542 10.6321 9.55439 11.1068 8.34919 12.0008C7.13563 12.9027 6.19825 14.1606 4.80056 14.7619C3.65395 15.2524 2.29811 15.2682 1.26867 15.9486C0.2476 16.6211 -0.237826 17.9423 0.113689 19.0737Z" fill="#FABA5B"></path><path d="M2.58267 12.8473C3.22711 13.2508 4.13101 13.3378 4.78382 12.9344C5.38642 12.5704 5.67098 11.89 5.88022 11.2413C6.2401 10.1495 6.49118 8.97863 6.18988 7.87102C6.05597 7.38842 5.83 6.93747 5.51196 6.54189C5.06838 5.996 4.44068 5.55296 3.72928 5.45802C1.6704 5.19695 1.10965 7.41216 1.10128 8.85995C1.09291 9.59572 1.10965 10.3394 1.31888 11.0514C1.51975 11.7555 1.93822 12.4359 2.58267 12.8473Z" fill="#FABA5B"></path><path d="M7.22769 5.87733C7.3616 6.86626 7.67127 7.87893 8.39941 8.59888C9.12755 9.31882 10.3746 9.64319 11.2701 9.12894C11.5798 8.95489 11.8309 8.69381 12.0736 8.43273C12.4669 8.02134 12.8603 7.59412 13.1198 7.0957C13.3876 6.56563 13.4796 5.98018 13.555 5.40264C13.8061 3.37731 13.3374 -0.261963 10.2993 0.0149381C7.57084 0.260193 6.95987 3.88364 7.22769 5.87733Z" fill="#FABA5B"></path><path d="M16.0072 10.5847C16.819 10.6796 17.5807 10.2365 18.267 9.80933C19.5475 9.00236 20.8949 8.14001 21.531 6.8188C22.3512 5.12574 22.4182 2.0561 19.6898 2.20641C17.4719 2.333 15.3962 4.72226 14.6179 6.47069C14.2747 7.2381 14.0571 8.10045 14.2496 8.91533C14.4505 9.73021 15.1284 10.4818 16.0072 10.5847Z" fill="#FABA5B"></path><path d="M21.7235 11.0356C18.8612 10.5688 13.4294 14.4138 16.8944 16.8901C17.43 17.2778 18.1498 17.3964 18.8193 17.3252C19.4973 17.2619 20.1417 17.0167 20.7527 16.7398C22.2089 16.0673 23.774 14.5166 24 13.1875V12.5783C23.8577 11.8663 23.1965 11.2809 21.7235 11.0356Z" fill="#FABA5B"></path></svg> 