<?xml version="1.0" encoding="UTF-8"?> <svg xmlns="http://www.w3.org/2000/svg" width="64" height="64" viewBox="0 0 64 64" fill="none"><path d="M32 14.6729C28.9397 14.6729 25.9458 15.5659 23.3855 17.2424C20.8252 18.9189 18.8097 21.3061 17.5861 24.1112C16.3624 26.9162 15.9839 30.0174 16.4968 33.0345C17.0097 36.0516 18.3918 38.8534 20.4736 41.0966L18.847 47.1651C18.7508 47.5233 18.7631 47.9021 18.8822 48.2533C19.0013 48.6046 19.2219 48.9127 19.5162 49.1386C19.8104 49.3644 20.165 49.4979 20.5351 49.5222C20.9053 49.5465 21.2743 49.4605 21.5955 49.275L27.9594 45.6C30.1217 46.1748 32.3818 46.2816 34.5887 45.9133C36.7956 45.545 38.8985 44.7101 40.757 43.4643C42.6155 42.2185 44.1868 40.5905 45.366 38.689C46.5451 36.7876 47.305 34.6564 47.5949 32.4378C47.8847 30.2193 47.6979 27.9644 47.0468 25.8238C46.3957 23.6832 45.2954 21.7062 43.8194 20.0247C42.3433 18.3433 40.5255 16.9961 38.4873 16.0732C36.4491 15.1503 34.2374 14.6729 32 14.6729Z" fill="#3452EF"></path><path d="M32 14.6729C28.9397 14.6729 25.9458 15.5659 23.3855 17.2424C20.8252 18.9189 18.8097 21.3061 17.5861 24.1112C16.3624 26.9162 15.9839 30.0174 16.4968 33.0345C17.0097 36.0516 18.3918 38.8534 20.4736 41.0966L18.847 47.1651C18.7508 47.5233 18.7631 47.9021 18.8822 48.2533C19.0013 48.6046 19.2219 48.9127 19.5162 49.1386C19.8104 49.3644 20.165 49.4979 20.5351 49.5222C20.9053 49.5465 21.2743 49.4605 21.5955 49.275L27.9594 45.6C30.1217 46.1748 32.3818 46.2816 34.5887 45.9133C36.7956 45.545 38.8985 44.7101 40.757 43.4643C42.6155 42.2185 44.1868 40.5905 45.366 38.689C46.5451 36.7876 47.305 34.6564 47.5949 32.4378C47.8847 30.2193 47.6979 27.9644 47.0468 25.8238C46.3957 23.6832 45.2954 21.7062 43.8194 20.0247C42.3433 18.3433 40.5255 16.9961 38.4873 16.0732C36.4491 15.1503 34.2374 14.6729 32 14.6729Z" fill="#242424"></path><path d="M62.975 31.7342C62.9954 30.9691 63.0165 30.1778 62.9815 29.3491C62.8777 27.0433 61.8855 24.8671 60.213 23.2765C58.5404 21.6859 56.3171 20.8043 54.009 20.8163C50.3016 12.3348 41.8325 6.39209 32 6.39209C22.1675 6.39209 13.6984 12.3348 9.99137 20.8163C7.68261 20.8039 5.45871 21.6859 3.78595 23.2772C2.11318 24.8686 1.12147 27.0457 1.01874 29.3522C0.983865 30.1772 1.00499 30.9691 1.02537 31.7342C1.04699 32.5467 1.06937 33.3872 1.02937 34.3292C0.931422 36.6922 1.77403 38.9976 3.37261 40.7405C5.04991 42.5693 7.46847 43.6348 9.94924 43.6363C11.079 43.637 12.1985 43.4219 13.2475 43.0025C13.7808 42.8361 14.2252 42.4243 14.4316 41.9052C14.638 41.3861 14.5976 40.7815 14.3241 40.2945C12.6315 37.2709 11.7431 33.8636 11.7437 30.3985C11.7437 19.2292 20.8312 10.1422 32 10.1422C43.1687 10.1422 52.2562 19.2297 52.2562 30.3985C52.2702 35.1263 50.6243 39.7092 47.6056 43.3478C44.5868 46.9865 40.3867 49.4503 35.7375 50.3095C35.2479 49.201 34.3864 48.2984 33.3019 47.7577C32.2174 47.217 30.978 47.0722 29.7981 47.3483C28.6182 47.6244 27.5718 48.3041 26.8398 49.2699C26.1078 50.2356 25.7363 51.4268 25.7894 52.6374C25.8425 53.8481 26.3169 55.0022 27.1306 55.9001C27.9443 56.7981 29.0462 57.3836 30.2458 57.5553C31.4454 57.7271 32.6673 57.4743 33.7003 56.8407C34.7333 56.2072 35.5124 55.2326 35.9031 54.0855C39.2056 53.5394 42.3578 52.3097 45.1576 50.4751C47.9575 48.6405 50.3433 46.2415 52.1625 43.4316C52.7829 43.5672 53.4161 43.6358 54.0512 43.6362C54.1817 43.6362 54.3124 43.6334 54.4434 43.6278C56.8056 43.5213 59.0293 42.483 60.6275 40.7403C62.2257 38.9976 63.0682 36.6925 62.9705 34.33C62.9307 33.3875 62.953 32.547 62.975 31.7342Z" fill="#FABA5B"></path><path d="M25.7533 32.2734C25.256 32.2739 24.7789 32.0768 24.4269 31.7255C24.075 31.3743 23.8769 30.8975 23.8765 30.4003C23.876 29.903 24.0731 29.4259 24.4244 29.0739C24.7757 28.7219 25.2524 28.5239 25.7497 28.5234H25.7533C26.2506 28.5234 26.7275 28.721 27.0791 29.0726C27.4307 29.4242 27.6283 29.9012 27.6283 30.3984C27.6283 30.8957 27.4307 31.3726 27.0791 31.7243C26.7275 32.0759 26.2506 32.2734 25.7533 32.2734Z" fill="white"></path><path d="M32.0068 32.2734C31.5095 32.2739 31.0324 32.0768 30.6805 31.7255C30.3285 31.3743 30.1305 30.8975 30.13 30.4003C30.1295 29.903 30.3266 29.4259 30.6779 29.0739C31.0292 28.7219 31.5059 28.5239 32.0032 28.5234H32.0068C32.5041 28.5234 32.981 28.721 33.3326 29.0726C33.6843 29.4242 33.8818 29.9012 33.8818 30.3984C33.8818 30.8957 33.6843 31.3726 33.3326 31.7243C32.981 32.0759 32.5041 32.2734 32.0068 32.2734Z" fill="white"></path><path d="M36.934 31.7255C37.286 32.0768 37.7631 32.2739 38.2604 32.2734C38.7576 32.2734 39.2346 32.0759 39.5862 31.7243C39.9378 31.3726 40.1354 30.8957 40.1354 30.3984C40.1354 29.9012 39.9378 29.4242 39.5862 29.0726C39.2346 28.721 38.7576 28.5234 38.2604 28.5234H38.2567C37.7595 28.5239 37.2827 28.7219 36.9314 29.0739C36.5801 29.4259 36.3831 29.903 36.3835 30.4003C36.384 30.8975 36.582 31.3743 36.934 31.7255Z" fill="white"></path><path d="M50.7525 43.0024C50.5059 42.9255 50.2779 42.7985 50.0828 42.6294C49.8876 42.4602 49.7295 42.2526 49.6183 42.0195C49.5072 41.7864 49.4454 41.5328 49.4368 41.2747C49.4282 41.0166 49.473 40.7595 49.5685 40.5195C48.1119 43.0575 46.1201 45.2478 43.7317 46.9384C41.3432 48.629 38.6153 49.7793 35.7375 50.3094C36.2664 51.5024 36.3255 52.8511 35.903 54.0858C39.2056 53.5397 42.3577 52.31 45.1576 50.4753C47.9575 48.6407 50.3434 46.2415 52.1625 43.4315C51.6815 43.3274 51.2099 43.1839 50.7525 43.0024Z" fill="white" fill-opacity="0.5"></path></svg> 